<svg xmlns="http://www.w3.org/2000/svg" version="1.1" width="960px" height="265px" style="shape-rendering:geometricPrecision; text-rendering:geometricPrecision; image-rendering:optimizeQuality; fill-rule:evenodd; clip-rule:evenodd" xmlns:xlink="http://www.w3.org/1999/xlink">
<g><path style="opacity:0.892" fill="#fefffe" d="M 48.5,49.5 C 64.8367,49.3334 81.1701,49.5001 97.5,50C 108.271,51.4409 115.438,57.2742 119,67.5C 119.667,93.5 119.667,119.5 119,145.5C 117.116,155.717 111.282,162.55 101.5,166C 83.5031,166.5 65.5031,166.667 47.5,166.5C 47.173,127.427 47.5064,88.4274 48.5,49.5 Z M 65.5,66.5 C 76.1719,66.3335 86.8385,66.5002 97.5,67C 98.3333,67.8333 99.1667,68.6667 100,69.5C 100.667,94.1667 100.667,118.833 100,143.5C 99.0271,147.406 96.5271,149.573 92.5,150C 83.5062,150.5 74.5062,150.666 65.5,150.5C 65.5,122.5 65.5,94.5 65.5,66.5 Z"/></g>
<g><path style="opacity:0.897" fill="#fefffe" d="M 411.5,49.5 C 416.233,49.2232 420.9,49.5565 425.5,50.5C 426.5,89.1609 426.833,127.828 426.5,166.5C 420.575,166.808 414.741,166.475 409,165.5C 408.333,127.5 408.333,89.5 409,51.5C 409.995,50.9341 410.828,50.2674 411.5,49.5 Z"/></g>
<g><path style="opacity:0.779" fill="#fefffe" d="M 444.5,49.5 C 447.777,49.2161 450.943,49.5495 454,50.5C 454.333,68.8333 454.667,87.1667 455,105.5C 462.757,106.159 470.591,106.492 478.5,106.5C 486.409,106.492 494.243,106.159 502,105.5C 502.333,87.5 502.667,69.5 503,51.5C 506.071,49.232 509.404,48.8986 513,50.5C 513.667,88.8333 513.667,127.167 513,165.5C 509.667,166.833 506.333,166.833 503,165.5C 502.5,149.17 502.333,132.837 502.5,116.5C 486.589,116.825 470.756,116.491 455,115.5C 454.667,132.167 454.333,148.833 454,165.5C 450.667,166.833 447.333,166.833 444,165.5C 443.179,126.792 443.346,88.1252 444.5,49.5 Z"/></g>
<g><path style="opacity:0.801" fill="#fefffe" d="M 133.5,50.5 C 139.206,50.1712 144.872,50.5046 150.5,51.5C 151.618,56.7798 151.784,62.1131 151,67.5C 150.5,68 150,68.5 149.5,69C 143.916,69.8056 138.416,69.6389 133,68.5C 132.212,62.418 132.379,56.418 133.5,50.5 Z"/></g>
<g><path style="opacity:0.812" fill="#fefffe" d="M 245.5,50.5 C 251.167,50.5 256.833,50.5 262.5,50.5C 263.509,55.7961 263.676,61.1294 263,66.5C 262.626,67.4162 262.126,68.2496 261.5,69C 255.916,69.8056 250.416,69.6389 245,68.5C 244.212,62.418 244.379,56.418 245.5,50.5 Z"/></g>
<g><path style="opacity:0.867" fill="#fefffe" d="M 281.5,50.5 C 286.844,50.334 292.177,50.5006 297.5,51C 298,51.5 298.5,52 299,52.5C 299.5,61.1603 299.666,69.8269 299.5,78.5C 305.509,78.3338 311.509,78.5005 317.5,79C 318,79.5 318.5,80 319,80.5C 319.802,85.419 319.635,90.2523 318.5,95C 312.175,95.4995 305.842,95.6662 299.5,95.5C 299.333,111.837 299.5,128.17 300,144.5C 300.833,146.667 302.333,148.167 304.5,149C 310.022,149.971 315.522,150.805 321,151.5C 321.667,156.167 321.667,160.833 321,165.5C 312.5,166.925 304,166.758 295.5,165C 287.202,161.58 282.369,155.414 281,146.5C 280.5,129.503 280.333,112.503 280.5,95.5C 276.818,95.6653 273.152,95.4986 269.5,95C 269,94.5 268.5,94 268,93.5C 267.333,89.1667 267.333,84.8333 268,80.5C 268.5,80 269,79.5 269.5,79C 273.152,78.5014 276.818,78.3347 280.5,78.5C 280.195,69.0833 280.528,59.75 281.5,50.5 Z"/></g>
<g><path style="opacity:0.848" fill="#fefffe" d="M 134.5,78.5 C 139.511,78.3341 144.511,78.5007 149.5,79C 150.126,79.7504 150.626,80.5838 151,81.5C 151.825,109.542 151.658,137.542 150.5,165.5C 144.612,166.807 138.779,166.807 133,165.5C 132.333,137.167 132.333,108.833 133,80.5C 133.717,79.9558 134.217,79.2891 134.5,78.5 Z"/></g>
<g><path style="opacity:0.883" fill="#fefffe" d="M 184.5,78.5 C 199.504,78.3334 214.504,78.5001 229.5,79C 230,79.5 230.5,80 231,80.5C 231.667,111.833 231.667,143.167 231,174.5C 228.978,182.052 224.478,187.552 217.5,191C 208.716,192.089 199.883,192.589 191,192.5C 183.59,192.492 176.257,192.159 169,191.5C 168.333,187.167 168.333,182.833 169,178.5C 169.5,178 170,177.5 170.5,177C 182.5,176.667 194.5,176.333 206.5,176C 208.624,174.878 210.457,173.378 212,171.5C 212.667,166.5 212.667,161.5 212,156.5C 209.406,160.047 205.906,161.881 201.5,162C 170.95,165.445 157.95,151.778 162.5,121C 162.396,112.441 162.896,103.941 164,95.5C 167.5,85.6843 174.333,80.0177 184.5,78.5 Z M 188.5,95.5 C 196.5,95.5 204.5,95.5 212.5,95.5C 212.667,110.17 212.5,124.837 212,139.5C 210.749,142.381 208.583,144.214 205.5,145C 199.5,147 193.5,147 187.5,145C 185,143.833 183.167,142 182,139.5C 181.333,126.833 181.333,114.167 182,101.5C 183.436,98.5581 185.603,96.5581 188.5,95.5 Z"/></g>
<g><path style="opacity:0.859" fill="#fefffe" d="M 246.5,78.5 C 251.511,78.3341 256.511,78.5007 261.5,79C 262.126,79.7504 262.626,80.5838 263,81.5C 263.667,108.833 263.667,136.167 263,163.5C 262.626,164.416 262.126,165.25 261.5,166C 258.833,166.167 256.167,166.333 253.5,166.5C 250.387,166.438 247.554,165.771 245,164.5C 244.333,136.5 244.333,108.5 245,80.5C 245.717,79.9558 246.217,79.2891 246.5,78.5 Z"/></g>
<g><path style="opacity:0.877" fill="#fefffe" d="M 348.5,78.5 C 363.504,78.3334 378.504,78.5001 393.5,79C 394.428,79.3879 395.095,80.0546 395.5,81C 396.654,108.47 396.82,135.97 396,163.5C 395.626,164.416 395.126,165.25 394.5,166C 389.167,166.667 383.833,166.667 378.5,166C 377.736,163.931 377.236,161.764 377,159.5C 375.019,162.745 372.186,164.911 368.5,166C 360.5,166.667 352.5,166.667 344.5,166C 336.755,163.256 331.255,158.089 328,150.5C 327.333,132.167 327.333,113.833 328,95.5C 331.462,85.6956 338.295,80.029 348.5,78.5 Z M 352.5,95.5 C 360.833,95.5 369.167,95.5 377.5,95.5C 377.667,110.504 377.5,125.504 377,140.5C 374.338,148.257 368.838,151.591 360.5,150.5C 356.259,150.747 352.259,149.913 348.5,148C 346.996,146.509 346.163,144.676 346,142.5C 345.333,129.167 345.333,115.833 346,102.5C 347.018,98.9853 349.185,96.652 352.5,95.5 Z"/></g>
<g><path style="opacity:0.793" fill="#fefffe" d="M 549.5,78.5 C 559.224,78.1411 568.891,78.6411 578.5,80C 586.641,83.1369 591.474,88.9703 593,97.5C 593.667,114.167 593.667,130.833 593,147.5C 591.708,156.918 586.542,163.085 577.5,166C 540.799,174.287 524.799,159.954 529.5,123C 529.388,113.443 529.888,103.943 531,94.5C 534.11,85.5422 540.277,80.2088 549.5,78.5 Z M 551.5,88.5 C 560.347,87.8739 569.014,88.7072 577.5,91C 579.617,92.7309 581.117,94.8976 582,97.5C 582.667,114.5 582.667,131.5 582,148.5C 580.167,151.667 577.667,154.167 574.5,156C 565.042,158.252 555.709,157.918 546.5,155C 545,153.5 543.5,152 542,150.5C 540.391,133.553 540.058,116.553 541,99.5C 541.977,93.3579 545.477,89.6912 551.5,88.5 Z"/></g>
<g><path style="opacity:0.806" fill="#fefffe" d="M 608.5,78.5 C 611.448,78.2229 614.281,78.5562 617,79.5C 617.031,102.563 617.697,125.563 619,148.5C 620.167,152.333 622.667,154.833 626.5,156C 635.268,158.21 643.935,157.876 652.5,155C 656.471,153.12 658.637,149.953 659,145.5C 659.333,123.5 659.667,101.5 660,79.5C 663.125,78.2126 666.291,78.2126 669.5,79.5C 670.83,108.363 670.83,137.196 669.5,166C 666.5,166.667 663.5,166.667 660.5,166C 659.751,164.266 659.251,162.433 659,160.5C 656.9,163.467 654.066,165.3 650.5,166C 641.5,166.667 632.5,166.667 623.5,166C 615.667,163.5 610.5,158.333 608,150.5C 607.178,126.428 607.344,102.428 608.5,78.5 Z"/></g>
<g><path style="opacity:0.784" fill="#fefffe" d="M 699.5,78.5 C 711.586,77.8669 723.419,78.5335 735,80.5C 735.769,83.0991 735.602,85.5991 734.5,88C 723.5,88.3333 712.5,88.6667 701.5,89C 697.98,89.504 695.48,91.3374 694,94.5C 693.004,99.2288 693.504,103.729 695.5,108C 707.299,113.714 719.299,119.047 731.5,124C 738.731,131.745 741.231,140.912 739,151.5C 737.605,159.228 733.105,164.062 725.5,166C 718.5,166.167 711.5,166.333 704.5,166.5C 697.096,166.481 689.93,165.814 683,164.5C 682.242,162.231 682.409,160.064 683.5,158C 695.167,157.667 706.833,157.333 718.5,157C 727.446,154.59 730.613,148.756 728,139.5C 728.053,136.387 726.886,133.887 724.5,132C 714.282,127.391 703.948,123.057 693.5,119C 682.971,112.742 679.471,103.575 683,91.5C 686.318,84.3437 691.818,80.0104 699.5,78.5 Z"/></g>
<g><path style="opacity:0.792" fill="#fefffe" d="M 770.5,78.5 C 778.507,78.3336 786.507,78.5003 794.5,79C 805.216,80.7162 811.716,86.8828 814,97.5C 814.667,107.5 814.667,117.5 814,127.5C 796.577,128.492 779.077,128.825 761.5,128.5C 761.334,135.175 761.5,141.842 762,148.5C 764.429,153.266 768.263,156.1 773.5,157C 786.5,157.333 799.5,157.667 812.5,158C 813.602,160.401 813.769,162.901 813,165.5C 797.574,166.657 782.074,166.824 766.5,166C 757.935,162.716 752.769,156.549 751,147.5C 750.333,131.167 750.333,114.833 751,98.5C 753.026,87.3085 759.526,80.6418 770.5,78.5 Z M 772.5,88.5 C 779.175,88.3337 785.842,88.5004 792.5,89C 798.285,89.7905 801.785,92.9571 803,98.5C 803.5,105.492 803.666,112.492 803.5,119.5C 789.5,119.5 775.5,119.5 761.5,119.5C 761.334,112.159 761.5,104.826 762,97.5C 763.875,92.448 767.375,89.448 772.5,88.5 Z"/></g>
<g><path style="opacity:0.769" fill="#fefffe" d="M 846.5,78.5 C 850.559,80.021 854.559,81.8543 858.5,84C 876.3,94.9691 893.967,106.136 911.5,117.5C 913.337,122.178 912.67,126.344 909.5,130C 889.274,142.403 868.941,154.569 848.5,166.5C 846.053,166.099 845.053,164.599 845.5,162C 845.167,159.333 846.167,157.333 848.5,156C 866.236,144.603 884.236,133.603 902.5,123C 884.334,111.416 866.001,100.083 847.5,89C 845.238,85.7309 844.905,82.2309 846.5,78.5 Z"/></g>
<g><path style="opacity:0.444" fill="#ff6e6d" d="M 533.5,244.5 C 533.167,244.5 532.833,244.5 532.5,244.5C 532.5,229.5 532.5,214.5 532.5,199.5C 529.833,199.5 527.167,199.5 524.5,199.5C 526.766,197.237 529.433,196.904 532.5,198.5C 533.192,199.025 533.692,199.692 534,200.5C 534.815,215.241 534.649,229.908 533.5,244.5 Z"/></g>
<g><path style="opacity:0.443" fill="#ff7474" d="M 706.5,199.5 C 706.167,199.5 705.833,199.5 705.5,199.5C 703.167,199.5 700.833,199.5 698.5,199.5C 698.167,199.5 697.833,199.5 697.5,199.5C 698.777,198.102 700.443,197.436 702.5,197.5C 704.355,197.34 705.688,198.007 706.5,199.5 Z"/></g>
<g><path style="opacity:0.11" fill="#ff7676" d="M 524.5,199.5 C 524.666,204.511 524.499,209.511 524,214.5C 523.184,213.177 522.017,212.511 520.5,212.5C 520.5,212.167 520.5,211.833 520.5,211.5C 521.5,211.5 522.5,211.5 523.5,211.5C 523.183,207.298 523.517,203.298 524.5,199.5 Z"/></g>
<g><path style="opacity:1" fill="#ff0705" d="M 524.5,199.5 C 527.167,199.5 529.833,199.5 532.5,199.5C 532.5,214.5 532.5,229.5 532.5,244.5C 529.833,244.5 527.167,244.5 524.5,244.5C 524.053,242.027 523.053,241.86 521.5,244C 515.772,245.441 510.772,244.274 506.5,240.5C 505.167,232.167 505.167,223.833 506.5,215.5C 507.833,214.833 508.833,213.833 509.5,212.5C 513.167,212.5 516.833,212.5 520.5,212.5C 522.017,212.511 523.184,213.177 524,214.5C 524.499,209.511 524.666,204.511 524.5,199.5 Z M 522.5,236.5 C 519.606,236.958 517.106,236.291 515,234.5C 514.201,229.913 514.368,225.413 515.5,221C 518.099,220.231 520.599,220.398 523,221.5C 523.726,226.552 523.559,231.552 522.5,236.5 Z"/></g>
<g><path style="opacity:1" fill="#ff140d" d="M 698.5,199.5 C 700.833,199.5 703.167,199.5 705.5,199.5C 705.173,204.544 705.506,209.544 706.5,214.5C 707.107,214.376 707.44,214.043 707.5,213.5C 708.167,213.167 708.833,212.833 709.5,212.5C 712.5,212.5 715.5,212.5 718.5,212.5C 722.888,213.891 724.888,216.891 724.5,221.5C 724.5,229.167 724.5,236.833 724.5,244.5C 721.833,244.5 719.167,244.5 716.5,244.5C 716.831,236.14 716.498,227.807 715.5,219.5C 712.433,217.904 709.766,218.237 707.5,220.5C 707.826,228.684 707.492,236.684 706.5,244.5C 703.833,244.5 701.167,244.5 698.5,244.5C 698.5,229.5 698.5,214.5 698.5,199.5 Z"/></g>
<g><path style="opacity:0.941" fill="#ff3434" d="M 705.5,199.5 C 705.833,199.5 706.167,199.5 706.5,199.5C 706.181,204.363 706.514,209.03 707.5,213.5C 707.44,214.043 707.107,214.376 706.5,214.5C 705.506,209.544 705.173,204.544 705.5,199.5 Z"/></g>
<g><path style="opacity:0.208" fill="#ff7676" d="M 706.5,199.5 C 706.869,203.768 707.869,207.768 709.5,211.5C 709.5,211.833 709.5,212.167 709.5,212.5C 708.833,212.833 708.167,213.167 707.5,213.5C 706.514,209.03 706.181,204.363 706.5,199.5 Z"/></g>
<g><path style="opacity:0.427" fill="#ff6d6d" d="M 798.5,197.5 C 800.92,197.292 803.253,197.626 805.5,198.5C 806.833,214.167 806.833,229.833 805.5,245.5C 802.526,246.577 799.526,246.577 796.5,245.5C 795.872,229.26 796.539,213.26 798.5,197.5 Z"/></g>
<g><path style="opacity:0.992" fill="#ff1818" d="M 797.5,199.5 C 800.167,199.5 802.833,199.5 805.5,199.5C 805.5,214.5 805.5,229.5 805.5,244.5C 802.833,244.5 800.167,244.5 797.5,244.5C 797.5,229.5 797.5,214.5 797.5,199.5 Z"/></g>
<g><path style="opacity:1" fill="#fe0000" d="M 798.5,200.5 C 800.5,200.5 802.5,200.5 804.5,200.5C 804.5,214.833 804.5,229.167 804.5,243.5C 802.5,243.5 800.5,243.5 798.5,243.5C 798.5,229.167 798.5,214.833 798.5,200.5 Z"/></g>
<g><path style="opacity:0.216" fill="#ff6d6c" d="M 663.5,207.5 C 659.919,204.067 655.586,202.734 650.5,203.5C 645.414,202.734 641.081,204.067 637.5,207.5C 637.916,205.248 639.249,203.748 641.5,203C 647.5,202.333 653.5,202.333 659.5,203C 661.751,203.748 663.084,205.248 663.5,207.5 Z"/></g>
<g><path style="opacity:1" fill="#ff0a08" d="M 465.5,206.5 C 466.114,210.135 466.448,213.802 466.5,217.5C 464.372,218.629 462.039,218.796 459.5,218C 458.883,215.723 458.216,213.556 457.5,211.5C 456.036,210.84 454.369,210.507 452.5,210.5C 450.36,210.556 448.694,211.223 447.5,212.5C 446.344,219.989 446.178,227.655 447,235.5C 447.383,236.056 447.883,236.389 448.5,236.5C 451.304,237.638 454.304,237.805 457.5,237C 458.167,234.667 458.833,232.333 459.5,230C 461.81,229.503 464.143,229.337 466.5,229.5C 467.429,234.765 466.096,239.265 462.5,243C 456.593,244.361 450.593,244.861 444.5,244.5C 441.8,242.954 439.967,240.621 439,237.5C 438.271,227.473 438.437,217.473 439.5,207.5C 443.256,204.05 447.756,202.717 453,203.5C 457.636,203 461.803,204 465.5,206.5 Z"/></g>
<g><path style="opacity:1" fill="#ff0907" d="M 663.5,207.5 C 663.963,210.482 664.296,213.482 664.5,216.5C 661.833,216.5 659.167,216.5 656.5,216.5C 656.923,214.219 656.256,212.552 654.5,211.5C 651.645,210.197 648.645,210.197 645.5,211.5C 643.922,214.25 644.255,216.583 646.5,218.5C 652.302,219.779 657.968,221.779 663.5,224.5C 664.392,229.438 664.726,234.438 664.5,239.5C 662.567,241.596 660.233,243.096 657.5,244C 652.5,244.667 647.5,244.667 642.5,244C 639.686,242.506 637.686,240.34 636.5,237.5C 636.5,235.5 636.5,233.5 636.5,231.5C 639.167,231.5 641.833,231.5 644.5,231.5C 644.12,233.698 644.787,235.365 646.5,236.5C 649.304,237.638 652.304,237.805 655.5,237C 656.777,234.534 656.777,232.034 655.5,229.5C 651.013,227.762 646.346,226.762 641.5,226.5C 640.5,224.833 639.167,223.5 637.5,222.5C 636.248,217.509 636.248,212.509 637.5,207.5C 641.081,204.067 645.414,202.734 650.5,203.5C 655.586,202.734 659.919,204.067 663.5,207.5 Z"/></g>
<g><path style="opacity:0.361" fill="#ff6d6c" d="M 465.5,206.5 C 461.803,204 457.636,203 453,203.5C 447.756,202.717 443.256,204.05 439.5,207.5C 439.916,205.248 441.249,203.748 443.5,203C 449.833,202.333 456.167,202.333 462.5,203C 464.063,203.759 465.063,204.926 465.5,206.5 Z"/></g>
<g><path style="opacity:0.428" fill="#ff7171" d="M 541.5,197.5 C 543.92,197.292 546.253,197.626 548.5,198.5C 549.487,201.768 549.82,205.102 549.5,208.5C 546.102,208.82 542.768,208.487 539.5,207.5C 537.815,203.589 538.482,200.255 541.5,197.5 Z"/></g>
<g><path style="opacity:1" fill="#ff0d0b" d="M 540.5,199.5 C 543.167,199.5 545.833,199.5 548.5,199.5C 548.5,202.167 548.5,204.833 548.5,207.5C 545.833,207.5 543.167,207.5 540.5,207.5C 540.5,204.833 540.5,202.167 540.5,199.5 Z"/></g>
<g><path style="opacity:0.028" fill="#ff7a7a" d="M 439.5,207.5 C 438.437,217.473 438.271,227.473 439,237.5C 439.967,240.621 441.8,242.954 444.5,244.5C 440.921,244.089 438.754,242.089 438,238.5C 437.333,228.833 437.333,219.167 438,209.5C 438.278,208.584 438.778,207.918 439.5,207.5 Z"/></g>
<g><path style="opacity:0.035" fill="#ff7877" d="M 457.5,211.5 C 453.821,211.06 450.488,211.727 447.5,213.5C 447.5,213.167 447.5,212.833 447.5,212.5C 448.694,211.223 450.36,210.556 452.5,210.5C 454.369,210.507 456.036,210.84 457.5,211.5 Z"/></g>
<g><path style="opacity:0.28" fill="#ff7171" d="M 615.5,211.5 C 608.138,211.365 600.804,211.698 593.5,212.5C 593.918,211.778 594.584,211.278 595.5,211C 602.346,210.179 609.013,210.346 615.5,211.5 Z"/></g>
<g><path style="opacity:0.045" fill="#ff7373" d="M 654.5,211.5 C 651.833,211.5 649.167,211.5 646.5,211.5C 646.5,213.833 646.5,216.167 646.5,218.5C 644.255,216.583 643.922,214.25 645.5,211.5C 648.645,210.197 651.645,210.197 654.5,211.5 Z"/></g>
<g><path style="opacity:0.133" fill="#ff7271" d="M 663.5,207.5 C 664.94,208.946 665.607,210.779 665.5,213C 665.486,214.385 665.152,215.551 664.5,216.5C 664.296,213.482 663.963,210.482 663.5,207.5 Z"/></g>
<g><path style="opacity:0.282" fill="#ff7271" d="M 750.5,211.5 C 745.463,211.413 740.463,211.746 735.5,212.5C 738.186,211.009 741.186,210.343 744.5,210.5C 746.696,210.505 748.696,210.838 750.5,211.5 Z"/></g>
<g><path style="opacity:0.765" fill="#ff5b58" d="M 465.5,206.5 C 467.948,209.937 468.615,213.603 467.5,217.5C 467.167,217.5 466.833,217.5 466.5,217.5C 466.448,213.802 466.114,210.135 465.5,206.5 Z"/></g>
<g><path style="opacity:0.941" fill="#ff5854" d="M 496.5,213.5 C 490.225,212.582 483.892,212.249 477.5,212.5C 477.918,211.778 478.584,211.278 479.5,211C 483.833,210.333 488.167,210.333 492.5,211C 494.32,211.2 495.653,212.034 496.5,213.5 Z"/></g>
<g><path style="opacity:0.941" fill="#ff5450" d="M 520.5,211.5 C 520.5,211.833 520.5,212.167 520.5,212.5C 516.833,212.5 513.167,212.5 509.5,212.5C 513.044,210.431 516.71,210.098 520.5,211.5 Z"/></g>
<g><path style="opacity:0.925" fill="#ff5956" d="M 578.5,212.5 C 574.5,212.5 570.5,212.5 566.5,212.5C 566.5,212.167 566.5,211.833 566.5,211.5C 570.724,210.031 574.724,210.364 578.5,212.5 Z"/></g>
<g><path style="opacity:0.941" fill="#ff524d" d="M 692.5,211.5 C 692.5,211.833 692.5,212.167 692.5,212.5C 686.833,212.5 681.167,212.5 675.5,212.5C 678.526,210.981 681.859,210.315 685.5,210.5C 688.025,210.503 690.359,210.837 692.5,211.5 Z"/></g>
<g><path style="opacity:0.943" fill="#ff5450" d="M 718.5,211.5 C 718.5,211.833 718.5,212.167 718.5,212.5C 715.5,212.5 712.5,212.5 709.5,212.5C 709.5,212.167 709.5,211.833 709.5,211.5C 712.5,210.167 715.5,210.167 718.5,211.5 Z"/></g>
<g><path style="opacity:0.941" fill="#ff5854" d="M 787.5,213.5 C 781.225,212.582 774.892,212.249 768.5,212.5C 768.918,211.778 769.584,211.278 770.5,211C 774.833,210.333 779.167,210.333 783.5,211C 785.32,211.2 786.653,212.034 787.5,213.5 Z"/></g>
<g><path style="opacity:1" fill="#ff0605" d="M 477.5,212.5 C 483.892,212.249 490.225,212.582 496.5,213.5C 496.685,215.196 497.519,216.529 499,217.5C 499.931,225.272 499.598,232.939 498,240.5C 496.681,242.487 494.848,243.654 492.5,244C 487.845,244.499 483.179,244.666 478.5,244.5C 475.71,243.033 474.044,240.7 473.5,237.5C 473.5,231.5 473.5,225.5 473.5,219.5C 473.961,216.697 475.295,214.363 477.5,212.5 Z M 481.5,235.5 C 481.334,230.821 481.501,226.155 482,221.5C 484.719,220.556 487.552,220.223 490.5,220.5C 490.666,225.511 490.499,230.511 490,235.5C 487.168,236.786 484.335,236.786 481.5,235.5 Z"/></g>
<g><path style="opacity:1" fill="#ff0a08" d="M 540.5,244.5 C 540.5,233.833 540.5,223.167 540.5,212.5C 542.895,211.186 545.395,211.186 548,212.5C 548.5,223.161 548.667,233.828 548.5,244.5C 545.833,244.5 543.167,244.5 540.5,244.5 Z"/></g>
<g><path style="opacity:0.255" fill="#ff7575" d="M 539.5,244.5 C 539.833,244.5 540.167,244.5 540.5,244.5C 543.167,244.5 545.833,244.5 548.5,244.5C 548.667,233.828 548.5,223.161 548,212.5C 545.395,211.186 542.895,211.186 540.5,212.5C 540.167,212.5 539.833,212.5 539.5,212.5C 540.514,211.235 542.014,210.569 544,210.5C 545.764,210.544 547.431,210.878 549,211.5C 549.832,222.848 549.666,234.181 548.5,245.5C 545.191,246.999 542.191,246.666 539.5,244.5 Z"/></g>
<g><path style="opacity:0.154" fill="#ff7878" d="M 566.5,211.5 C 566.5,211.833 566.5,212.167 566.5,212.5C 563.271,211.479 559.771,211.479 556,212.5C 555.5,223.161 555.333,233.828 555.5,244.5C 554.341,233.674 554.174,222.674 555,211.5C 558.8,210.271 562.633,210.271 566.5,211.5 Z"/></g>
<g><path style="opacity:1" fill="#ff0d09" d="M 566.5,212.5 C 570.5,212.5 574.5,212.5 578.5,212.5C 579.5,214.167 580.833,215.5 582.5,216.5C 582.5,216.833 582.5,217.167 582.5,217.5C 582.5,226.5 582.5,235.5 582.5,244.5C 579.833,244.5 577.167,244.5 574.5,244.5C 574.666,236.493 574.5,228.493 574,220.5C 570.421,217.627 567.255,217.96 564.5,221.5C 563.508,228.982 563.175,236.648 563.5,244.5C 560.833,244.5 558.167,244.5 555.5,244.5C 555.333,233.828 555.5,223.161 556,212.5C 559.771,211.479 563.271,211.479 566.5,212.5 Z"/></g>
<g><path style="opacity:0.047" fill="#ff7171" d="M 578.5,212.5 C 580.833,212.833 582.167,214.167 582.5,216.5C 580.833,215.5 579.5,214.167 578.5,212.5 Z"/></g>
<g><path style="opacity:1" fill="#ff0b08" d="M 615.5,211.5 C 615.963,224.932 615.463,238.265 614,251.5C 612.2,253.317 610.034,254.484 607.5,255C 601.984,255.817 596.65,255.651 591.5,254.5C 591.5,252.5 591.5,250.5 591.5,248.5C 596.363,248.819 601.03,248.486 605.5,247.5C 606.725,246.848 607.392,245.681 607.5,244C 607.961,240.434 606.961,239.768 604.5,242C 600.848,242.499 597.182,242.665 593.5,242.5C 591.295,240.637 589.961,238.303 589.5,235.5C 589.334,229.158 589.5,222.825 590,216.5C 591.376,215.295 592.542,213.962 593.5,212.5C 600.804,211.698 608.138,211.365 615.5,211.5 Z M 605.5,219.5 C 606.648,223.981 606.815,228.648 606,233.5C 603.619,234.435 601.119,234.768 598.5,234.5C 598.5,229.833 598.5,225.167 598.5,220.5C 601.059,220.802 603.393,220.468 605.5,219.5 Z"/></g>
<g><path style="opacity:0.424" fill="#ff6a69" d="M 637.5,207.5 C 636.248,212.509 636.248,217.509 637.5,222.5C 635.967,220.366 635.3,217.866 635.5,215C 635.3,212.134 635.967,209.634 637.5,207.5 Z"/></g>
<g><path style="opacity:1" fill="#ff0806" d="M 675.5,212.5 C 681.167,212.5 686.833,212.5 692.5,212.5C 692.5,214.5 692.5,216.5 692.5,218.5C 688.486,218.334 684.486,218.501 680.5,219C 679.167,225 679.167,231 680.5,237C 684.486,237.499 688.486,237.666 692.5,237.5C 692.5,239.833 692.5,242.167 692.5,244.5C 686.773,244.74 681.106,244.407 675.5,243.5C 674.164,241.99 672.997,240.323 672,238.5C 671.5,231.174 671.334,223.841 671.5,216.5C 673.167,215.5 674.5,214.167 675.5,212.5 Z"/></g>
<g><path style="opacity:1" fill="#ff0906" d="M 750.5,211.5 C 750.833,211.5 751.167,211.5 751.5,211.5C 753.46,213.156 755.46,214.823 757.5,216.5C 757.666,223.841 757.5,231.174 757,238.5C 756.338,239.984 755.504,241.317 754.5,242.5C 749.055,244.345 743.388,245.012 737.5,244.5C 735.193,243.023 733.36,241.023 732,238.5C 731.5,231.174 731.334,223.841 731.5,216.5C 733.167,215.5 734.5,214.167 735.5,212.5C 740.463,211.746 745.463,211.413 750.5,211.5 Z M 748.5,236.5 C 745.881,236.768 743.381,236.435 741,235.5C 740.501,230.511 740.334,225.511 740.5,220.5C 743.167,220.5 745.833,220.5 748.5,220.5C 748.5,225.833 748.5,231.167 748.5,236.5 Z"/></g>
<g><path style="opacity:0.463" fill="#ff6d6c" d="M 751.5,211.5 C 754.732,211.772 756.732,213.438 757.5,216.5C 755.46,214.823 753.46,213.156 751.5,211.5 Z"/></g>
<g><path style="opacity:1" fill="#ff0907" d="M 768.5,212.5 C 774.892,212.249 781.225,212.582 787.5,213.5C 787.833,214.5 788.5,215.167 789.5,215.5C 790.997,223.889 790.83,232.223 789,240.5C 787.681,242.487 785.848,243.654 783.5,244C 777.294,245.245 771.461,244.412 766,241.5C 765.138,239.913 764.471,238.246 764,236.5C 763.333,230.5 763.333,224.5 764,218.5C 765.332,216.34 766.832,214.34 768.5,212.5 Z M 773.5,220.5 C 776.167,220.5 778.833,220.5 781.5,220.5C 781.666,225.511 781.499,230.511 781,235.5C 778.043,237.077 775.376,236.744 773,234.5C 772.227,229.748 772.393,225.081 773.5,220.5 Z"/></g>
<g><path style="opacity:0.75" fill="#ff5655" d="M 447.5,212.5 C 447.5,212.833 447.5,213.167 447.5,213.5C 447.233,221.222 447.566,228.889 448.5,236.5C 447.883,236.389 447.383,236.056 447,235.5C 446.178,227.655 446.344,219.989 447.5,212.5 Z"/></g>
<g><path style="opacity:0.608" fill="#ff6d6c" d="M 539.5,212.5 C 539.833,212.5 540.167,212.5 540.5,212.5C 540.5,223.167 540.5,233.833 540.5,244.5C 540.167,244.5 539.833,244.5 539.5,244.5C 538.182,233.735 538.182,223.069 539.5,212.5 Z"/></g>
<g><path style="opacity:0.016" fill="#ff7676" d="M 787.5,213.5 C 788.833,213.5 789.5,214.167 789.5,215.5C 788.5,215.167 787.833,214.5 787.5,213.5 Z"/></g>
<g><path style="opacity:0.835" fill="#ff6260" d="M 477.5,212.5 C 475.295,214.363 473.961,216.697 473.5,219.5C 473.167,219.5 472.833,219.5 472.5,219.5C 472.241,215.763 473.907,213.43 477.5,212.5 Z"/></g>
<g><path style="opacity:0.439" fill="#ff7170" d="M 509.5,212.5 C 508.833,213.833 507.833,214.833 506.5,215.5C 506.5,213.5 507.5,212.5 509.5,212.5 Z"/></g>
<g><path style="opacity:0.698" fill="#ff6a69" d="M 675.5,212.5 C 674.5,214.167 673.167,215.5 671.5,216.5C 671.833,214.167 673.167,212.833 675.5,212.5 Z"/></g>
<g><path style="opacity:0.663" fill="#ff6c6c" d="M 735.5,212.5 C 734.5,214.167 733.167,215.5 731.5,216.5C 731.833,214.167 733.167,212.833 735.5,212.5 Z"/></g>
<g><path style="opacity:0.098" fill="#ff6260" d="M 593.5,212.5 C 592.542,213.962 591.376,215.295 590,216.5C 589.5,222.825 589.334,229.158 589.5,235.5C 588.511,230.025 588.178,224.358 588.5,218.5C 588.712,215.288 590.379,213.288 593.5,212.5 Z"/></g>
<g><path style="opacity:0.201" fill="#ff7270" d="M 654.5,211.5 C 656.256,212.552 656.923,214.219 656.5,216.5C 659.167,216.5 661.833,216.5 664.5,216.5C 661.713,217.477 658.713,217.81 655.5,217.5C 655.483,215.435 655.15,213.435 654.5,211.5 Z"/></g>
<g><path style="opacity:0.152" fill="#ff7a7a" d="M 457.5,211.5 C 458.216,213.556 458.883,215.723 459.5,218C 462.039,218.796 464.372,218.629 466.5,217.5C 466.833,217.5 467.167,217.5 467.5,217.5C 466.486,218.765 464.986,219.431 463,219.5C 461.5,219.333 460,219.167 458.5,219C 457.565,216.619 457.232,214.119 457.5,211.5 Z"/></g>
<g><path style="opacity:0.022" fill="#ff7a7a" d="M 588.5,218.5 C 588.178,224.358 588.511,230.025 589.5,235.5C 589.961,238.303 591.295,240.637 593.5,242.5C 590.482,241.647 588.649,239.647 588,236.5C 587.181,230.319 587.347,224.319 588.5,218.5 Z"/></g>
<g><path style="opacity:0.022" fill="#ff7a7a" d="M 718.5,212.5 C 718.5,212.167 718.5,211.833 718.5,211.5C 722.408,212.239 724.908,214.572 726,218.5C 726.824,227.343 726.657,236.01 725.5,244.5C 725.825,236.648 725.492,228.982 724.5,221.5C 724.888,216.891 722.888,213.891 718.5,212.5 Z"/></g>
<g><path style="opacity:0.326" fill="#ff6d6c" d="M 506.5,215.5 C 505.167,223.833 505.167,232.167 506.5,240.5C 505.778,240.082 505.278,239.416 505,238.5C 504.333,231.5 504.333,224.5 505,217.5C 505.278,216.584 505.778,215.918 506.5,215.5 Z"/></g>
<g><path style="opacity:0.94" fill="#ff4f4a" d="M 472.5,219.5 C 472.833,219.5 473.167,219.5 473.5,219.5C 473.5,225.5 473.5,231.5 473.5,237.5C 473.167,237.5 472.833,237.5 472.5,237.5C 471.167,231.5 471.167,225.5 472.5,219.5 Z"/></g>
<g><path style="opacity:0.22" fill="#ff6765" d="M 646.5,218.5 C 651.333,218.375 656,219.208 660.5,221C 662.063,221.759 663.063,222.926 663.5,224.5C 657.968,221.779 652.302,219.779 646.5,218.5 Z"/></g>
<g><path style="opacity:0.749" fill="#ff6564" d="M 671.5,216.5 C 671.334,223.841 671.5,231.174 672,238.5C 672.997,240.323 674.164,241.99 675.5,243.5C 675.167,243.5 674.833,243.5 674.5,243.5C 672.016,241.88 670.516,239.547 670,236.5C 669.333,230.833 669.333,225.167 670,219.5C 670.232,218.263 670.732,217.263 671.5,216.5 Z"/></g>
<g><path style="opacity:0.114" fill="#ff7372" d="M 692.5,211.5 C 693.817,214.23 693.817,217.063 692.5,220C 688.514,220.499 684.514,220.666 680.5,220.5C 680.334,225.511 680.501,230.511 681,235.5C 684.935,236.138 688.769,236.804 692.5,237.5C 688.486,237.666 684.486,237.499 680.5,237C 679.167,231 679.167,225 680.5,219C 684.486,218.501 688.486,218.334 692.5,218.5C 692.5,216.5 692.5,214.5 692.5,212.5C 692.5,212.167 692.5,211.833 692.5,211.5 Z"/></g>
<g><path style="opacity:0.113" fill="#ff6f6d" d="M 748.5,236.5 C 745.77,237.817 742.937,237.817 740,236.5C 739.193,230.584 739.359,224.75 740.5,219C 743.993,217.996 747.159,218.496 750,220.5C 750.667,225.167 750.667,229.833 750,234.5C 749.722,235.416 749.222,236.082 748.5,236.5 Z M 748.5,236.5 C 748.5,231.167 748.5,225.833 748.5,220.5C 745.833,220.5 743.167,220.5 740.5,220.5C 740.334,225.511 740.501,230.511 741,235.5C 743.381,236.435 745.881,236.768 748.5,236.5 Z"/></g>
<g><path style="opacity:0.749" fill="#ff6664" d="M 757.5,216.5 C 758.268,217.263 758.768,218.263 759,219.5C 759.667,225.167 759.667,230.833 759,236.5C 758.576,239.025 757.41,241.025 755.5,242.5C 755.167,242.5 754.833,242.5 754.5,242.5C 755.504,241.317 756.338,239.984 757,238.5C 757.5,231.174 757.666,223.841 757.5,216.5 Z"/></g>
<g><path style="opacity:0.292" fill="#ff6b6a" d="M 481.5,235.5 C 480.35,230.684 480.184,225.684 481,220.5C 483.896,218.255 487.063,217.922 490.5,219.5C 491.663,225.137 491.83,230.804 491,236.5C 489.431,237.122 487.764,237.456 486,237.5C 484.014,237.431 482.514,236.765 481.5,235.5 Z M 481.5,235.5 C 484.335,236.786 487.168,236.786 490,235.5C 490.499,230.511 490.666,225.511 490.5,220.5C 487.552,220.223 484.719,220.556 482,221.5C 481.501,226.155 481.334,230.821 481.5,235.5 Z"/></g>
<g><path style="opacity:0.121" fill="#ff7373" d="M 598.5,218.5 C 601.5,218.5 604.5,218.5 607.5,218.5C 607.666,223.844 607.499,229.177 607,234.5C 603.943,235.451 600.777,235.784 597.5,235.5C 597.214,229.741 597.548,224.075 598.5,218.5 Z M 605.5,219.5 C 603.393,220.468 601.059,220.802 598.5,220.5C 598.5,225.167 598.5,229.833 598.5,234.5C 601.119,234.768 603.619,234.435 606,233.5C 606.815,228.648 606.648,223.981 605.5,219.5 Z"/></g>
<g><path style="opacity:0.282" fill="#ff7373" d="M 716.5,244.5 C 715.508,236.684 715.174,228.684 715.5,220.5C 712.833,220.5 710.167,220.5 707.5,220.5C 709.766,218.237 712.433,217.904 715.5,219.5C 716.498,227.807 716.831,236.14 716.5,244.5 Z"/></g>
<g><path style="opacity:0.344" fill="#ff7171" d="M 522.5,236.5 C 521.378,237.156 520.045,237.489 518.5,237.5C 516.68,237.351 515.18,236.684 514,235.5C 513.333,230.5 513.333,225.5 514,220.5C 517.333,217.833 520.667,217.833 524,220.5C 524.667,225.5 524.667,230.5 524,235.5C 523.617,236.056 523.117,236.389 522.5,236.5 Z M 522.5,236.5 C 523.559,231.552 523.726,226.552 523,221.5C 520.599,220.398 518.099,220.231 515.5,221C 514.368,225.413 514.201,229.913 515,234.5C 517.106,236.291 519.606,236.958 522.5,236.5 Z"/></g>
<g><path style="opacity:0.147" fill="#ff7575" d="M 582.5,217.5 C 583.822,226.675 583.822,236.008 582.5,245.5C 579.833,246.833 577.167,246.833 574.5,245.5C 573.668,237.521 573.168,229.521 573,221.5C 570.667,220.167 568.333,220.167 566,221.5C 565.829,229.344 565.329,237.011 564.5,244.5C 564.5,236.833 564.5,229.167 564.5,221.5C 567.255,217.96 570.421,217.627 574,220.5C 574.5,228.493 574.666,236.493 574.5,244.5C 577.167,244.5 579.833,244.5 582.5,244.5C 582.5,235.5 582.5,226.5 582.5,217.5 Z"/></g>
<g><path style="opacity:0.106" fill="#ff6b6a" d="M 637.5,222.5 C 639.167,223.5 640.5,224.833 641.5,226.5C 639.167,226.167 637.833,224.833 637.5,222.5 Z"/></g>
<g><path style="opacity:0.429" fill="#ff7171" d="M 646.5,236.5 C 644.787,235.365 644.12,233.698 644.5,231.5C 641.833,231.5 639.167,231.5 636.5,231.5C 636.5,233.5 636.5,235.5 636.5,237.5C 635.532,235.393 635.198,233.059 635.5,230.5C 638.85,230.335 642.183,230.502 645.5,231C 646.406,232.699 646.739,234.533 646.5,236.5 Z"/></g>
<g><path style="opacity:0.861" fill="#ff6866" d="M 663.5,224.5 C 665.755,226.759 666.755,229.592 666.5,233C 666.664,235.544 665.997,237.71 664.5,239.5C 664.726,234.438 664.392,229.438 663.5,224.5 Z"/></g>
<g><path style="opacity:0.43" fill="#ff6c6b" d="M 641.5,226.5 C 646.346,226.762 651.013,227.762 655.5,229.5C 656.777,232.034 656.777,234.534 655.5,237C 652.304,237.805 649.304,237.638 646.5,236.5C 649.187,236.664 651.854,236.497 654.5,236C 655.76,234.186 655.76,232.353 654.5,230.5C 649.919,229.611 645.586,228.277 641.5,226.5 Z"/></g>
<g><path style="opacity:0.263" fill="#ff7474" d="M 496.5,213.5 C 499.39,214.899 500.89,217.232 501,220.5C 502.054,227.698 501.388,234.698 499,241.5C 496.552,244.473 493.386,245.973 489.5,246C 485.552,246.745 481.885,246.245 478.5,244.5C 483.179,244.666 487.845,244.499 492.5,244C 494.848,243.654 496.681,242.487 498,240.5C 499.598,232.939 499.931,225.272 499,217.5C 497.519,216.529 496.685,215.196 496.5,213.5 Z"/></g>
<g><path style="opacity:0.557" fill="#ff6968" d="M 731.5,216.5 C 731.334,223.841 731.5,231.174 732,238.5C 733.36,241.023 735.193,243.023 737.5,244.5C 737.167,244.5 736.833,244.5 736.5,244.5C 732.743,243.233 730.576,240.566 730,236.5C 729.333,231.167 729.333,225.833 730,220.5C 730.21,218.942 730.71,217.609 731.5,216.5 Z"/></g>
<g><path style="opacity:0.016" fill="#ff7170" d="M 472.5,237.5 C 472.833,237.5 473.167,237.5 473.5,237.5C 474.044,240.7 475.71,243.033 478.5,244.5C 474.41,243.998 472.41,241.665 472.5,237.5 Z"/></g>
<g><path style="opacity:0.408" fill="#ff7373" d="M 768.5,212.5 C 766.832,214.34 765.332,216.34 764,218.5C 763.333,224.5 763.333,230.5 764,236.5C 764.471,238.246 765.138,239.913 766,241.5C 771.461,244.412 777.294,245.245 783.5,244C 785.848,243.654 787.681,242.487 789,240.5C 790.83,232.223 790.997,223.889 789.5,215.5C 790.117,215.611 790.617,215.944 791,216.5C 791.167,220.333 791.333,224.167 791.5,228C 793.51,241.99 787.51,247.99 773.5,246C 768.427,245.559 764.927,243.059 763,238.5C 762.333,231.5 762.333,224.5 763,217.5C 764.076,214.921 765.909,213.254 768.5,212.5 Z M 773.5,220.5 C 772.393,225.081 772.227,229.748 773,234.5C 775.376,236.744 778.043,237.077 781,235.5C 781.499,230.511 781.666,225.511 781.5,220.5C 778.833,220.5 776.167,220.5 773.5,220.5 Z"/></g>
<g><path style="opacity:0.208" fill="#ff6c6b" d="M 773.5,218.5 C 776.249,218.274 778.916,218.607 781.5,219.5C 782.807,225.388 782.807,231.221 781.5,237C 780,237.167 778.5,237.333 777,237.5C 775.019,237.371 773.353,236.704 772,235.5C 771.333,230.5 771.333,225.5 772,220.5C 772.717,219.956 773.217,219.289 773.5,218.5 Z M 773.5,220.5 C 772.393,225.081 772.227,229.748 773,234.5C 775.376,236.744 778.043,237.077 781,235.5C 781.499,230.511 781.666,225.511 781.5,220.5C 778.833,220.5 776.167,220.5 773.5,220.5 Z"/></g>
<g><path style="opacity:0.146" fill="#ff6b69" d="M 605.5,247.5 C 606.473,245.932 606.64,244.265 606,242.5C 601.726,245.15 597.559,245.15 593.5,242.5C 597.182,242.665 600.848,242.499 604.5,242C 606.961,239.768 607.961,240.434 607.5,244C 607.392,245.681 606.725,246.848 605.5,247.5 Z"/></g>
<g><path style="opacity:0.127" fill="#ff7170" d="M 444.5,244.5 C 450.593,244.861 456.593,244.361 462.5,243C 466.096,239.265 467.429,234.765 466.5,229.5C 464.143,229.337 461.81,229.503 459.5,230C 458.833,232.333 458.167,234.667 457.5,237C 454.304,237.805 451.304,237.638 448.5,236.5C 451.187,236.664 453.854,236.497 456.5,236C 457.264,233.931 457.764,231.764 458,229.5C 467.843,226.494 470.843,229.827 467,239.5C 465.132,243.521 461.965,245.687 457.5,246C 452.887,246.84 448.554,246.34 444.5,244.5 Z"/></g>
<g><path style="opacity:0.454" fill="#ff7373" d="M 506.5,240.5 C 510.772,244.274 515.772,245.441 521.5,244C 523.053,241.86 524.053,242.027 524.5,244.5C 519.083,247.314 513.749,247.147 508.5,244C 507.177,243.184 506.511,242.017 506.5,240.5 Z"/></g>
<g><path style="opacity:0.456" fill="#ff7474" d="M 524.5,244.5 C 527.167,244.5 529.833,244.5 532.5,244.5C 532.833,244.5 533.167,244.5 533.5,244.5C 532.223,245.898 530.557,246.564 528.5,246.5C 526.645,246.66 525.312,245.993 524.5,244.5 Z"/></g>
<g><path style="opacity:0.444" fill="#ff6665" d="M 564.5,221.5 C 564.5,229.167 564.5,236.833 564.5,244.5C 561.5,247.167 558.5,247.167 555.5,244.5C 558.167,244.5 560.833,244.5 563.5,244.5C 563.175,236.648 563.508,228.982 564.5,221.5 Z"/></g>
<g><path style="opacity:0.454" fill="#ff7272" d="M 636.5,237.5 C 637.686,240.34 639.686,242.506 642.5,244C 647.5,244.667 652.5,244.667 657.5,244C 660.233,243.096 662.567,241.596 664.5,239.5C 664.141,241.371 663.141,242.871 661.5,244C 654.177,247.261 646.844,247.261 639.5,244C 637.549,242.266 636.549,240.099 636.5,237.5 Z"/></g>
<g><path style="opacity:0.455" fill="#ff7373" d="M 692.5,237.5 C 693.156,238.622 693.489,239.955 693.5,241.5C 693.351,243.32 692.684,244.82 691.5,246C 687.833,246.667 684.167,246.667 680.5,246C 678.148,245.76 676.148,244.927 674.5,243.5C 674.833,243.5 675.167,243.5 675.5,243.5C 681.106,244.407 686.773,244.74 692.5,244.5C 692.5,242.167 692.5,239.833 692.5,237.5 Z"/></g>
<g><path style="opacity:0.448" fill="#ff6766" d="M 697.5,199.5 C 697.833,199.5 698.167,199.5 698.5,199.5C 698.5,214.5 698.5,229.5 698.5,244.5C 701.167,244.5 703.833,244.5 706.5,244.5C 704.151,246.631 701.484,246.965 698.5,245.5C 697.501,230.181 697.167,214.848 697.5,199.5 Z"/></g>
<g><path style="opacity:0.448" fill="#ff6462" d="M 724.5,221.5 C 725.492,228.982 725.825,236.648 725.5,244.5C 722.5,247.167 719.5,247.167 716.5,244.5C 719.167,244.5 721.833,244.5 724.5,244.5C 724.5,236.833 724.5,229.167 724.5,221.5 Z"/></g>
<g><path style="opacity:0.454" fill="#ff7474" d="M 754.5,242.5 C 754.833,242.5 755.167,242.5 755.5,242.5C 754.942,243.79 753.942,244.623 752.5,245C 746.96,247.129 741.626,246.963 736.5,244.5C 736.833,244.5 737.167,244.5 737.5,244.5C 743.388,245.012 749.055,244.345 754.5,242.5 Z"/></g>
<g><path style="opacity:0.427" fill="#ff6564" d="M 605.5,247.5 C 601.03,248.486 596.363,248.819 591.5,248.5C 591.5,250.5 591.5,252.5 591.5,254.5C 591.167,254.5 590.833,254.5 590.5,254.5C 590.5,252.167 590.5,249.833 590.5,247.5C 595.5,247.5 600.5,247.5 605.5,247.5 Z"/></g>
<g><path style="opacity:0.028" fill="#ff706f" d="M 615.5,211.5 C 616.166,217.825 616.5,224.325 616.5,231C 620.894,253.919 612.227,261.752 590.5,254.5C 590.833,254.5 591.167,254.5 591.5,254.5C 596.65,255.651 601.984,255.817 607.5,255C 610.034,254.484 612.2,253.317 614,251.5C 615.463,238.265 615.963,224.932 615.5,211.5 Z"/></g>
</svg>