<svg xmlns="http://www.w3.org/2000/svg" version="1.1" width="1280px" height="384px" style="shape-rendering:geometricPrecision; text-rendering:geometricPrecision; image-rendering:optimizeQuality; fill-rule:evenodd; clip-rule:evenodd" xmlns:xlink="http://www.w3.org/1999/xlink">
<g><path style="opacity:0.541" fill="#e1b2bc" d="M 1107.5,110.5 C 1096.57,109.844 1085.57,109.511 1074.5,109.5C 1063.48,109.501 1052.81,110.168 1042.5,111.5C 1040.95,111.179 1040.29,110.179 1040.5,108.5C 1061.43,108.409 1082.6,108.076 1104,107.5C 1105.73,107.974 1106.9,108.974 1107.5,110.5 Z"/></g>
<g><path style="opacity:0.447" fill="#ebdbaa" d="M 1217.5,132.5 C 1217.56,131.391 1217.89,130.391 1218.5,129.5C 1222.5,123.833 1226.5,118.167 1230.5,112.5C 1231.4,111.791 1231.74,110.791 1231.5,109.5C 1210.09,109.178 1188.76,109.512 1167.5,110.5C 1167.88,109.069 1168.88,108.236 1170.5,108C 1174.17,107.833 1177.83,107.667 1181.5,107.5C 1198.82,108.321 1216.16,108.654 1233.5,108.5C 1229.38,117.293 1224.04,125.293 1217.5,132.5 Z"/></g>
<g><path style="opacity:1" fill="#fefefe" d="M 964.5,285.5 C 964.158,286.338 963.492,286.672 962.5,286.5C 962.265,285.903 961.765,285.57 961,285.5C 940.953,291.437 922.62,288.104 906,275.5C 905.601,275.728 905.435,276.062 905.5,276.5C 904.167,276.5 903.5,275.833 903.5,274.5C 903.938,274.565 904.272,274.399 904.5,274C 882.536,252.639 876.702,227.472 887,198.5C 892.114,186.917 899.614,177.25 909.5,169.5C 914.552,164.973 920.552,161.973 927.5,160.5C 927.917,161.124 928.584,161.457 929.5,161.5C 943.202,158.948 956.536,160.282 969.5,165.5C 975.049,168.875 980.216,172.875 985,177.5C 985.333,177.167 985.667,176.833 986,176.5C 986.5,154.169 986.667,131.836 986.5,109.5C 1001.84,109.333 1017.17,109.5 1032.5,110C 1033.64,116.752 1033.81,123.586 1033,130.5C 1025.92,131.48 1018.75,131.813 1011.5,131.5C 1011.5,175.833 1011.5,220.167 1011.5,264.5C 1018.75,264.187 1025.92,264.52 1033,265.5C 1033.81,272.414 1033.64,279.248 1032.5,286C 1017.17,286.5 1001.84,286.667 986.5,286.5C 986.5,281.5 986.5,276.5 986.5,271.5C 985.448,271.351 984.448,271.517 983.5,272C 977.23,277.572 970.897,282.072 964.5,285.5 Z M 985.5,229.5 C 978.751,257.371 961.418,268.204 933.5,262C 921.476,255.83 913.809,246.33 910.5,233.5C 907.918,214.453 914.585,199.286 930.5,188C 955.113,178.889 972.613,186.389 983,210.5C 985.001,216.678 985.834,223.012 985.5,229.5 Z"/></g>
<g><path style="opacity:1" fill="#aa3c53" d="M 1107.5,110.5 C 1107.43,112.027 1108.09,113.027 1109.5,113.5C 1109.74,115.404 1110.74,116.738 1112.5,117.5C 1112.43,119.027 1113.09,120.027 1114.5,120.5C 1114.74,122.404 1115.74,123.738 1117.5,124.5C 1117.5,125.167 1117.5,125.833 1117.5,126.5C 1114.88,125.355 1112.88,123.521 1111.5,121C 1110.22,120.316 1109.05,120.483 1108,121.5C 1107.79,120.197 1107.96,118.864 1108.5,117.5C 1107.25,115.666 1106.58,113.666 1106.5,111.5C 1086.19,110.202 1065.86,110.202 1045.5,111.5C 1047.33,113.487 1048.33,115.821 1048.5,118.5C 1046.74,115.98 1044.74,113.647 1042.5,111.5C 1052.81,110.168 1063.48,109.501 1074.5,109.5C 1085.57,109.511 1096.57,109.844 1107.5,110.5 Z"/></g>
<g><path style="opacity:1" fill="#c1a336" d="M 1230.5,112.5 C 1220.69,111.168 1210.52,110.501 1200,110.5C 1189.01,110.545 1178.18,111.212 1167.5,112.5C 1167.5,111.833 1167.5,111.167 1167.5,110.5C 1188.76,109.512 1210.09,109.178 1231.5,109.5C 1231.74,110.791 1231.4,111.791 1230.5,112.5 Z"/></g>
<g><path style="opacity:0.173" fill="#fcd6de" d="M 1107.5,110.5 C 1108.91,110.973 1109.57,111.973 1109.5,113.5C 1108.09,113.027 1107.43,112.027 1107.5,110.5 Z"/></g>
<g><path style="opacity:0.376" fill="#f8d8e1" d="M 1109.5,113.5 C 1111.26,114.262 1112.26,115.596 1112.5,117.5C 1110.74,116.738 1109.74,115.404 1109.5,113.5 Z"/></g>
<g><path style="opacity:0.165" fill="#f9f2be" d="M 1167.5,110.5 C 1167.5,111.167 1167.5,111.833 1167.5,112.5C 1166.17,113.5 1164.83,114.5 1163.5,115.5C 1164.08,113.251 1165.41,111.585 1167.5,110.5 Z"/></g>
<g><path style="opacity:1" fill="#b1243e" d="M 1117.5,126.5 C 1118.06,128.801 1118.56,131.134 1119,133.5C 1119.33,133.167 1119.67,132.833 1120,132.5C 1120.79,134.644 1122.29,135.977 1124.5,136.5C 1125.17,136.5 1125.5,136.833 1125.5,137.5C 1126.09,141.089 1128.09,143.422 1131.5,144.5C 1132.08,146.749 1133.41,148.415 1135.5,149.5C 1135.84,152.198 1137.18,154.198 1139.5,155.5C 1139.74,157.404 1140.74,158.738 1142.5,159.5C 1142.5,160.167 1142.5,160.833 1142.5,161.5C 1143.58,167.019 1146.58,171.019 1151.5,173.5C 1152.17,173.833 1152.83,174.167 1153.5,174.5C 1153.43,176.027 1154.09,177.027 1155.5,177.5C 1155.5,178.167 1155.5,178.833 1155.5,179.5C 1156.17,182.167 1157.83,183.833 1160.5,184.5C 1160.74,186.404 1161.74,187.738 1163.5,188.5C 1163.74,190.404 1164.74,191.738 1166.5,192.5C 1167.15,194.156 1167.81,195.823 1168.5,197.5C 1167.53,199.789 1166.2,201.789 1164.5,203.5C 1161.53,203.746 1160.2,205.412 1160.5,208.5C 1159.5,208.5 1158.5,208.5 1157.5,208.5C 1154.75,212.342 1152.75,216.675 1151.5,221.5C 1151.5,222.167 1151.5,222.833 1151.5,223.5C 1148.07,226.601 1145.4,230.268 1143.5,234.5C 1141.1,236.296 1139.43,238.63 1138.5,241.5C 1136.74,242.262 1135.74,243.596 1135.5,245.5C 1132.4,248.275 1130.06,251.608 1128.5,255.5C 1126.19,257.146 1124.19,259.146 1122.5,261.5C 1116.88,265.461 1113.21,270.794 1111.5,277.5C 1109.98,277.511 1108.82,278.177 1108,279.5C 1106.56,280.9 1105.73,282.567 1105.5,284.5C 1094.52,285.107 1083.52,285.44 1072.5,285.5C 1062.81,285.498 1053.48,284.832 1044.5,283.5C 1044.43,281.973 1045.09,280.973 1046.5,280.5C 1049.47,277.358 1052.3,274.025 1055,270.5C 1056.7,268.423 1057.87,266.09 1058.5,263.5C 1061.12,258.587 1064.45,254.254 1068.5,250.5C 1074.58,246.765 1078.25,241.432 1079.5,234.5C 1080.11,233.609 1080.44,232.609 1080.5,231.5C 1082.9,229.704 1084.57,227.37 1085.5,224.5C 1086.17,224.167 1086.83,223.833 1087.5,223.5C 1090.29,221.887 1092.95,220.054 1095.5,218C 1094.98,217.439 1094.64,216.772 1094.5,216C 1096.48,213.853 1097.81,211.353 1098.5,208.5C 1100.25,205.328 1102.25,202.328 1104.5,199.5C 1105.6,198.399 1105.76,197.066 1105,195.5C 1104.58,194.244 1103.75,193.577 1102.5,193.5C 1101.17,190.507 1099.17,188.173 1096.5,186.5C 1094.15,181.12 1090.81,176.454 1086.5,172.5C 1085.83,172.5 1085.5,172.167 1085.5,171.5C 1083.32,165.993 1079.99,161.326 1075.5,157.5C 1075.57,155.973 1074.91,154.973 1073.5,154.5C 1068.27,145.603 1062.27,137.27 1055.5,129.5C 1053.59,125.583 1051.25,121.917 1048.5,118.5C 1048.33,115.821 1047.33,113.487 1045.5,111.5C 1065.86,110.202 1086.19,110.202 1106.5,111.5C 1106.58,113.666 1107.25,115.666 1108.5,117.5C 1107.96,118.864 1107.79,120.197 1108,121.5C 1109.05,120.483 1110.22,120.316 1111.5,121C 1112.88,123.521 1114.88,125.355 1117.5,126.5 Z"/></g>
<g><path style="opacity:1" fill="#c4960f" d="M 1230.5,112.5 C 1226.5,118.167 1222.5,123.833 1218.5,129.5C 1216.09,129.694 1215.09,131.027 1215.5,133.5C 1213.13,135.579 1211.79,138.246 1211.5,141.5C 1210.32,141.281 1209.32,141.614 1208.5,142.5C 1204.25,149.586 1199.41,156.253 1194,162.5C 1193.52,163.448 1193.35,164.448 1193.5,165.5C 1190.64,167.023 1188.97,169.357 1188.5,172.5C 1187.36,172.908 1186.36,173.575 1185.5,174.5C 1182.81,179.219 1179.65,183.552 1176,187.5C 1172.08,181.744 1167.58,176.411 1162.5,171.5C 1162.45,169.368 1161.45,168.035 1159.5,167.5C 1158.96,165.407 1158.12,163.407 1157,161.5C 1153.27,155.989 1149.11,150.989 1144.5,146.5C 1144.34,145.127 1144.51,143.793 1145,142.5C 1147.81,139.536 1149.98,136.202 1151.5,132.5C 1155.54,128.46 1159.21,124.127 1162.5,119.5C 1164.55,117.45 1166.21,115.117 1167.5,112.5C 1178.18,111.212 1189.01,110.545 1200,110.5C 1210.52,110.501 1220.69,111.168 1230.5,112.5 Z"/></g>
<g><path style="opacity:0.859" fill="#d5bc72" d="M 1167.5,112.5 C 1166.21,115.117 1164.55,117.45 1162.5,119.5C 1162.5,118.833 1162.5,118.167 1162.5,117.5C 1162.33,116.508 1162.66,115.842 1163.5,115.5C 1164.83,114.5 1166.17,113.5 1167.5,112.5 Z"/></g>
<g><path style="opacity:0.255" fill="#f8d4da" d="M 1112.5,117.5 C 1113.91,117.973 1114.57,118.973 1114.5,120.5C 1113.09,120.027 1112.43,119.027 1112.5,117.5 Z"/></g>
<g><path style="opacity:0.137" fill="#efc5cb" d="M 1042.5,111.5 C 1044.74,113.647 1046.74,115.98 1048.5,118.5C 1051.25,121.917 1053.59,125.583 1055.5,129.5C 1054.21,128.71 1053.04,127.71 1052,126.5C 1048.31,121.782 1045.15,116.782 1042.5,111.5 Z"/></g>
<g><path style="opacity:0.341" fill="#f5cdd2" d="M 1114.5,120.5 C 1116.26,121.262 1117.26,122.596 1117.5,124.5C 1115.74,123.738 1114.74,122.404 1114.5,120.5 Z"/></g>
<g><path style="opacity:0.396" fill="#f3e5b6" d="M 1162.5,117.5 C 1162.5,118.167 1162.5,118.833 1162.5,119.5C 1159.21,124.127 1155.54,128.46 1151.5,132.5C 1154.79,127.214 1158.45,122.214 1162.5,117.5 Z"/></g>
<g><path style="opacity:0.275" fill="#f9d5d7" d="M 1117.5,124.5 C 1119.9,126.296 1121.57,128.63 1122.5,131.5C 1120.61,130.027 1118.94,128.36 1117.5,126.5C 1117.5,125.833 1117.5,125.167 1117.5,124.5 Z"/></g>
<g><path style="opacity:0.969" fill="#c9b15a" d="M 1218.5,129.5 C 1217.89,130.391 1217.56,131.391 1217.5,132.5C 1217.5,132.833 1217.5,133.167 1217.5,133.5C 1216.83,133.5 1216.17,133.5 1215.5,133.5C 1215.09,131.027 1216.09,129.694 1218.5,129.5 Z"/></g>
<g><path style="opacity:1" fill="#ae3f51" d="M 1117.5,126.5 C 1118.94,128.36 1120.61,130.027 1122.5,131.5C 1122.43,133.027 1123.09,134.027 1124.5,134.5C 1124.5,135.167 1124.5,135.833 1124.5,136.5C 1122.29,135.977 1120.79,134.644 1120,132.5C 1119.67,132.833 1119.33,133.167 1119,133.5C 1118.56,131.134 1118.06,128.801 1117.5,126.5 Z"/></g>
<g><path style="opacity:0.341" fill="#f9cdda" d="M 1122.5,131.5 C 1123.91,131.973 1124.57,132.973 1124.5,134.5C 1123.09,134.027 1122.43,133.027 1122.5,131.5 Z"/></g>
<g><path style="opacity:0.588" fill="#eec3ca" d="M 1124.5,134.5 C 1126.26,135.262 1127.26,136.596 1127.5,138.5C 1126.83,138.167 1126.17,137.833 1125.5,137.5C 1125.5,136.833 1125.17,136.5 1124.5,136.5C 1124.5,135.833 1124.5,135.167 1124.5,134.5 Z"/></g>
<g><path style="opacity:0.62" fill="#f2e5b0" d="M 1151.5,132.5 C 1149.98,136.202 1147.81,139.536 1145,142.5C 1144.51,143.793 1144.34,145.127 1144.5,146.5C 1143.39,145.054 1143.22,143.387 1144,141.5C 1146.36,138.31 1148.86,135.31 1151.5,132.5 Z"/></g>
<g><path style="opacity:0.275" fill="#f1e2ad" d="M 1215.5,133.5 C 1216.17,133.5 1216.83,133.5 1217.5,133.5C 1215.49,136.205 1213.49,138.872 1211.5,141.5C 1211.79,138.246 1213.13,135.579 1215.5,133.5 Z"/></g>
<g><path style="opacity:0.384" fill="#f1ccd0" d="M 1127.5,138.5 C 1129.26,139.262 1130.26,140.596 1130.5,142.5C 1128.74,141.738 1127.74,140.404 1127.5,138.5 Z"/></g>
<g><path style="opacity:0.157" fill="#edc3ca" d="M 1055.5,129.5 C 1062.27,137.27 1068.27,145.603 1073.5,154.5C 1069.45,150.088 1065.61,145.421 1062,140.5C 1059.58,136.929 1057.41,133.262 1055.5,129.5 Z"/></g>
<g><path style="opacity:1" fill="#bd6574" d="M 1125.5,137.5 C 1126.17,137.833 1126.83,138.167 1127.5,138.5C 1127.74,140.404 1128.74,141.738 1130.5,142.5C 1131.34,142.842 1131.67,143.508 1131.5,144.5C 1128.09,143.422 1126.09,141.089 1125.5,137.5 Z"/></g>
<g><path style="opacity:0.18" fill="#f1cdd1" d="M 1131.5,144.5 C 1133.59,145.585 1134.92,147.251 1135.5,149.5C 1133.41,148.415 1132.08,146.749 1131.5,144.5 Z"/></g>
<g><path style="opacity:0.329" fill="#efbecc" d="M 1135.5,149.5 C 1137.33,151.147 1138.66,153.147 1139.5,155.5C 1137.18,154.198 1135.84,152.198 1135.5,149.5 Z"/></g>
<g><path style="opacity:0.051" fill="#f3cfd4" d="M 1073.5,154.5 C 1074.91,154.973 1075.57,155.973 1075.5,157.5C 1074.09,157.027 1073.43,156.027 1073.5,154.5 Z"/></g>
<g><path style="opacity:0.682" fill="#ecb8c6" d="M 1139.5,155.5 C 1141.26,156.262 1142.26,157.596 1142.5,159.5C 1140.74,158.738 1139.74,157.404 1139.5,155.5 Z"/></g>
<g><path style="opacity:0.653" fill="#edecec" d="M 310.5,167.5 C 283.377,154.878 258.711,158.544 236.5,178.5C 239.218,175.276 242.218,172.109 245.5,169C 263.491,157.574 282.824,155.574 303.5,163C 306.239,164.026 308.572,165.526 310.5,167.5 Z"/></g>
<g><path style="opacity:0.564" fill="#eeedee" d="M 969.5,165.5 C 956.536,160.282 943.202,158.948 929.5,161.5C 928.584,161.457 927.917,161.124 927.5,160.5C 940.702,157.345 953.702,158.178 966.5,163C 967.942,163.377 968.942,164.21 969.5,165.5 Z"/></g>
<g><path style="opacity:1" fill="#fefefe" d="M 310.5,167.5 C 314.348,171.253 318.682,174.253 323.5,176.5C 323.5,172.167 323.5,167.833 323.5,163.5C 339.167,163.5 354.833,163.5 370.5,163.5C 370.5,170.833 370.5,178.167 370.5,185.5C 363.167,185.5 355.833,185.5 348.5,185.5C 348.333,211.502 348.5,237.502 349,263.5C 356.079,264.48 363.245,264.813 370.5,264.5C 370.5,271.833 370.5,279.167 370.5,286.5C 354.833,286.5 339.167,286.5 323.5,286.5C 323.827,281.456 323.494,276.456 322.5,271.5C 315.459,277.111 308.459,281.778 301.5,285.5C 301.158,286.338 300.492,286.672 299.5,286.5C 299.44,285.957 299.107,285.624 298.5,285.5C 277.571,291.447 258.571,287.781 241.5,274.5C 222.562,255.068 215.562,232.068 220.5,205.5C 223.451,194.929 228.784,185.929 236.5,178.5C 258.711,158.544 283.377,154.878 310.5,167.5 Z M 291.5,184.5 C 313.87,191.539 324.037,206.872 322,230.5C 319.329,244.655 311.829,255.321 299.5,262.5C 289.841,265.112 280.174,265.112 270.5,262.5C 247.927,247.563 242.094,227.563 253,202.5C 257.364,196.97 262.198,191.97 267.5,187.5C 273.198,185.658 279.031,184.325 285,183.5C 287.187,183.788 289.354,184.122 291.5,184.5 Z"/></g>
<g><path style="opacity:0.449" fill="#ecebec" d="M 715.5,168.5 C 695.809,158.649 675.809,157.982 655.5,166.5C 658.32,163.919 661.654,162.086 665.5,161C 677.5,157.667 689.5,157.667 701.5,161C 706.674,162.751 711.341,165.251 715.5,168.5 Z"/></g>
<g><path style="opacity:1" fill="#fefefe" d="M 715.5,168.5 C 718.788,171.449 722.121,174.449 725.5,177.5C 726.086,177.291 726.586,176.957 727,176.5C 727.499,172.179 727.666,167.846 727.5,163.5C 742.833,163.5 758.167,163.5 773.5,163.5C 773.5,170.833 773.5,178.167 773.5,185.5C 766.245,185.187 759.079,185.52 752,186.5C 751.333,212.167 751.333,237.833 752,263.5C 759.079,264.48 766.245,264.813 773.5,264.5C 773.5,271.833 773.5,279.167 773.5,286.5C 758.167,286.5 742.833,286.5 727.5,286.5C 727.5,281.5 727.5,276.5 727.5,271.5C 722.927,273.798 718.594,276.632 714.5,280C 708.649,282.927 703.315,285.427 698.5,287.5C 688.622,291.173 678.289,291.34 667.5,288C 663.532,286.962 659.865,285.462 656.5,283.5C 657.239,283.631 657.906,283.464 658.5,283C 630.793,266.747 619.293,242.58 624,210.5C 628.552,191.467 639.052,176.8 655.5,166.5C 675.809,157.982 695.809,158.649 715.5,168.5 Z M 724.5,238.5 C 715.064,258.629 699.564,266.962 678,263.5C 658.919,255 649.752,240.333 650.5,219.5C 654.55,197.945 667.384,185.945 689,183.5C 712.39,187.062 724.89,200.728 726.5,224.5C 725.739,229.163 725.072,233.83 724.5,238.5 Z"/></g>
<g><path style="opacity:1" fill="#fefefe" d="M 463.5,160.5 C 468.305,161.487 473.305,161.821 478.5,161.5C 478.5,169.833 478.5,178.167 478.5,186.5C 464.174,185.113 452.007,189.446 442,199.5C 440.263,202.397 438.763,205.397 437.5,208.5C 437.624,209.107 437.957,209.44 438.5,209.5C 437.976,211.306 437.309,212.972 436.5,214.5C 434.914,217.632 434.081,221.632 434,226.5C 433.333,238.833 433.333,251.167 434,263.5C 442.749,264.484 451.582,264.817 460.5,264.5C 460.5,271.833 460.5,279.167 460.5,286.5C 435.167,286.5 409.833,286.5 384.5,286.5C 384.5,279.167 384.5,271.833 384.5,264.5C 392.752,264.816 400.919,264.482 409,263.5C 409.667,237.833 409.667,212.167 409,186.5C 400.919,185.518 392.752,185.184 384.5,185.5C 384.5,178.167 384.5,170.833 384.5,163.5C 399.167,163.5 413.833,163.5 428.5,163.5C 428.334,170.508 428.5,177.508 429,184.5C 429.333,185.167 429.667,185.833 430,186.5C 431.372,185.09 432.205,183.423 432.5,181.5C 438.842,168.814 449.175,161.814 463.5,160.5 Z"/></g>
<g><path style="opacity:0.929" fill="#ececec" d="M 564.5,229.5 C 565.043,229.56 565.376,229.893 565.5,230.5C 562.951,237.654 560.118,244.654 557,251.5C 547.433,229.975 538.933,207.975 531.5,185.5C 536.5,185.5 541.5,185.5 546.5,185.5C 546.5,178.167 546.5,170.833 546.5,163.5C 527.167,163.5 507.833,163.5 488.5,163.5C 488.5,170.833 488.5,178.167 488.5,185.5C 494.537,185.171 500.537,185.504 506.5,186.5C 511.833,200.167 517.167,213.833 522.5,227.5C 522.03,228.463 521.363,228.463 520.5,227.5C 515.3,213.898 510.3,200.232 505.5,186.5C 499.167,186.5 492.833,186.5 486.5,186.5C 486.184,178.248 486.518,170.081 487.5,162C 507.497,161.5 527.497,161.333 547.5,161.5C 547.185,169.42 547.518,177.253 548.5,185C 544.015,186.274 539.348,186.941 534.5,187C 533.978,187.561 533.645,188.228 533.5,189C 540.804,208.578 548.304,228.078 556,247.5C 557.016,248.634 557.683,248.301 558,246.5C 560.077,240.766 562.243,235.099 564.5,229.5 Z"/></g>
<g><path style="opacity:1" fill="#fefefe" d="M 849.5,196.5 C 848.581,199.089 846.914,201.089 844.5,202.5C 843.21,203.058 842.377,204.058 842,205.5C 840.039,210.677 838.706,216.01 838,221.5C 837.5,235.829 837.333,250.163 837.5,264.5C 846.682,264.827 855.682,264.493 864.5,263.5C 865.833,271.5 865.833,279.5 864.5,287.5C 838.833,286.167 813.167,286.167 787.5,287.5C 786.167,279.833 786.167,272.167 787.5,264.5C 795.752,264.816 803.919,264.482 812,263.5C 812.5,237.502 812.667,211.502 812.5,185.5C 804.5,185.5 796.5,185.5 788.5,185.5C 788.5,178.167 788.5,170.833 788.5,163.5C 803.167,163.5 817.833,163.5 832.5,163.5C 832.169,170.863 832.503,178.197 833.5,185.5C 835.675,183.15 837.342,180.483 838.5,177.5C 850.205,164.483 864.872,159.15 882.5,161.5C 882.5,169.833 882.5,178.167 882.5,186.5C 871.837,185.666 861.837,187.832 852.5,193C 851.29,194.039 850.29,195.206 849.5,196.5 Z"/></g>
<g><path style="opacity:0.72" fill="#ebeaea" d="M 849.5,196.5 C 850.29,195.206 851.29,194.039 852.5,193C 861.837,187.832 871.837,185.666 882.5,186.5C 882.5,178.167 882.5,169.833 882.5,161.5C 864.872,159.15 850.205,164.483 838.5,177.5C 842.408,170.77 848.074,165.937 855.5,163C 864.305,160.172 873.305,159.172 882.5,160C 883.167,160.667 883.833,161.333 884.5,162C 883.792,169.833 883.792,177.833 884.5,186C 883.833,186.667 883.167,187.333 882.5,188C 870.385,186.945 859.385,189.778 849.5,196.5 Z"/></g>
<g><path style="opacity:0.435" fill="#f3c1cf" d="M 1142.5,159.5 C 1144.26,160.262 1145.26,161.596 1145.5,163.5C 1144.5,162.833 1143.5,162.167 1142.5,161.5C 1142.5,160.833 1142.5,160.167 1142.5,159.5 Z"/></g>
<g><path style="opacity:0.251" fill="#eddda6" d="M 1211.5,141.5 C 1205.85,149.807 1199.85,157.807 1193.5,165.5C 1193.35,164.448 1193.52,163.448 1194,162.5C 1199.41,156.253 1204.25,149.586 1208.5,142.5C 1209.32,141.614 1210.32,141.281 1211.5,141.5 Z"/></g>
<g><path style="opacity:0.974" fill="#ecebec" d="M 609.5,186.5 C 613.68,185.726 619.18,185.059 626,184.5C 626.5,177.508 626.666,170.508 626.5,163.5C 606.5,163.5 586.5,163.5 566.5,163.5C 566.5,170.833 566.5,178.167 566.5,185.5C 572.021,185.054 577.355,185.554 582.5,187C 577.166,201.32 571.499,214.82 565.5,227.5C 569.734,215.372 574.234,203.372 579,191.5C 579.494,189.866 579.66,188.199 579.5,186.5C 574.5,186.5 569.5,186.5 564.5,186.5C 564.184,178.248 564.518,170.081 565.5,162C 585.833,161.333 606.167,161.333 626.5,162C 627,162.5 627.5,163 628,163.5C 627.25,170.884 627.417,178.051 628.5,185C 627.667,185.833 626.833,186.667 626,187.5C 620.865,186.648 615.365,186.315 609.5,186.5 Z"/></g>
<g><path style="opacity:0.62" fill="#eedca3" d="M 1144.5,146.5 C 1149.11,150.989 1153.27,155.989 1157,161.5C 1158.12,163.407 1158.96,165.407 1159.5,167.5C 1153.77,161.037 1148.77,154.037 1144.5,146.5 Z"/></g>
<g><path style="opacity:1" fill="#fefefe" d="M 564.5,229.5 C 564.328,228.508 564.662,227.842 565.5,227.5C 571.499,214.82 577.166,201.32 582.5,187C 577.355,185.554 572.021,185.054 566.5,185.5C 566.5,178.167 566.5,170.833 566.5,163.5C 586.5,163.5 606.5,163.5 626.5,163.5C 626.666,170.508 626.5,177.508 626,184.5C 619.18,185.059 613.68,185.726 609.5,186.5C 607.884,188.738 606.551,191.071 605.5,193.5C 605.565,193.062 605.399,192.728 605,192.5C 592.833,224.167 580.667,255.833 568.5,287.5C 560.862,288.497 553.196,288.831 545.5,288.5C 541.404,276.2 536.737,264.2 531.5,252.5C 527.597,244.352 523.93,236.019 520.5,227.5C 521.363,228.463 522.03,228.463 522.5,227.5C 517.167,213.833 511.833,200.167 506.5,186.5C 500.537,185.504 494.537,185.171 488.5,185.5C 488.5,178.167 488.5,170.833 488.5,163.5C 507.833,163.5 527.167,163.5 546.5,163.5C 546.5,170.833 546.5,178.167 546.5,185.5C 541.5,185.5 536.5,185.5 531.5,185.5C 538.933,207.975 547.433,229.975 557,251.5C 560.118,244.654 562.951,237.654 565.5,230.5C 565.376,229.893 565.043,229.56 564.5,229.5 Z"/></g>
<g><path style="opacity:0.561" fill="#eec4ca" d="M 1145.5,163.5 C 1147.26,164.262 1148.26,165.596 1148.5,167.5C 1146.74,166.738 1145.74,165.404 1145.5,163.5 Z"/></g>
<g><path style="opacity:0.329" fill="#efc7cd" d="M 1075.5,157.5 C 1079.99,161.326 1083.32,165.993 1085.5,171.5C 1081.68,167.194 1078.35,162.527 1075.5,157.5 Z"/></g>
<g><path style="opacity:1" fill="#ae4053" d="M 1142.5,161.5 C 1143.5,162.167 1144.5,162.833 1145.5,163.5C 1145.74,165.404 1146.74,166.738 1148.5,167.5C 1148.74,169.404 1149.74,170.738 1151.5,171.5C 1151.5,172.167 1151.5,172.833 1151.5,173.5C 1146.58,171.019 1143.58,167.019 1142.5,161.5 Z"/></g>
<g><path style="opacity:0.157" fill="#f0dfaa" d="M 1193.5,165.5 C 1192.21,168.117 1190.55,170.45 1188.5,172.5C 1188.97,169.357 1190.64,167.023 1193.5,165.5 Z"/></g>
<g><path style="opacity:0.325" fill="#f8d1d5" d="M 1148.5,167.5 C 1150.26,168.262 1151.26,169.596 1151.5,171.5C 1149.74,170.738 1148.74,169.404 1148.5,167.5 Z"/></g>
<g><path style="opacity:0.51" fill="#f2dfb3" d="M 1159.5,167.5 C 1161.45,168.035 1162.45,169.368 1162.5,171.5C 1161.03,170.564 1160.03,169.23 1159.5,167.5 Z"/></g>
<g><path style="opacity:0.133" fill="#fadfde" d="M 1151.5,171.5 C 1152.91,171.973 1153.57,172.973 1153.5,174.5C 1152.83,174.167 1152.17,173.833 1151.5,173.5C 1151.5,172.833 1151.5,172.167 1151.5,171.5 Z"/></g>
<g><path style="opacity:0.247" fill="#f8d4da" d="M 1153.5,174.5 C 1154.91,174.973 1155.57,175.973 1155.5,177.5C 1154.09,177.027 1153.43,176.027 1153.5,174.5 Z"/></g>
<g><path style="opacity:0.22" fill="#f1e4b0" d="M 1162.5,171.5 C 1167.58,176.411 1172.08,181.744 1176,187.5C 1179.65,183.552 1182.81,179.219 1185.5,174.5C 1186.36,173.575 1187.36,172.908 1188.5,172.5C 1185.27,178.891 1181.1,184.557 1176,189.5C 1173.57,187.993 1171.57,185.993 1170,183.5C 1167.25,179.598 1164.75,175.598 1162.5,171.5 Z"/></g>
<g><path style="opacity:0.42" fill="#f6cbcd" d="M 1155.5,177.5 C 1157.59,178.585 1158.92,180.251 1159.5,182.5C 1158.17,181.5 1156.83,180.5 1155.5,179.5C 1155.5,178.833 1155.5,178.167 1155.5,177.5 Z"/></g>
<g><path style="opacity:0.425" fill="#ececec" d="M 83.5,107.5 C 95.4934,108.24 107.16,108.574 118.5,108.5C 119.434,111.267 120.1,114.1 120.5,117C 119.807,121.81 119.307,126.643 119,131.5C 118.261,132.574 117.261,133.241 116,133.5C 109.668,133.382 103.168,133.382 96.5,133.5C 96.5,149.167 96.5,164.833 96.5,180.5C 120.833,180.5 145.167,180.5 169.5,180.5C 169.5,164.833 169.5,149.167 169.5,133.5C 162.151,133.451 154.817,133.118 147.5,132.5C 146.306,126.111 144.973,120.111 143.5,114.5C 144.274,113.289 145.107,113.289 146,114.5C 146.093,111.993 146.926,109.826 148.5,108C 172.202,108.543 195.869,108.377 219.5,107.5C 220.167,107.833 220.833,108.167 221.5,108.5C 222.802,116.528 222.802,124.528 221.5,132.5C 214.532,133.497 207.532,133.83 200.5,133.5C 200.333,176.501 200.5,219.501 201,262.5C 207.333,263.833 213.667,263.833 220,262.5C 220.667,263.167 221.333,263.833 222,264.5C 222.5,272.159 222.666,279.826 222.5,287.5C 197.649,287.195 173.149,287.529 149,288.5C 147.861,284.342 147.361,280.009 147.5,275.5C 147.833,271.5 148.167,267.5 148.5,263.5C 155.24,263.76 162.073,263.427 169,262.5C 169.18,244.123 169.68,225.79 170.5,207.5C 145.842,206.5 121.176,206.167 96.5,206.5C 96.5,225.167 96.5,243.833 96.5,262.5C 103.84,263.679 111.006,263.679 118,262.5C 119.438,270.723 119.938,279.057 119.5,287.5C 95.2586,287.172 71.0919,287.506 47,288.5C 46.586,288.043 46.086,287.709 45.5,287.5C 44.5023,279.528 44.169,271.528 44.5,263.5C 51.8333,263.5 59.1667,263.5 66.5,263.5C 66.8333,220.162 66.4999,176.828 65.5,133.5C 58.76,133.76 51.9267,133.427 45,132.5C 44.5003,124.507 44.3336,116.507 44.5,108.5C 57.6774,108.829 70.6774,108.495 83.5,107.5 Z"/></g>
<g><path style="opacity:1" fill="#fefefe" d="M 46.5,109.5 C 70.1667,109.5 93.8333,109.5 117.5,109.5C 117.5,116.833 117.5,124.167 117.5,131.5C 110.167,131.5 102.833,131.5 95.5,131.5C 95.3334,148.17 95.5001,164.837 96,181.5C 108.427,182.162 120.927,182.495 133.5,182.5C 146.073,182.495 158.573,182.162 171,181.5C 171.667,165.167 171.667,148.833 171,132.5C 163.921,131.52 156.755,131.187 149.5,131.5C 148.849,124.255 148.849,117.088 149.5,110C 173.164,109.5 196.831,109.333 220.5,109.5C 220.5,116.833 220.5,124.167 220.5,131.5C 213.245,131.187 206.079,131.52 199,132.5C 198.333,176.167 198.333,219.833 199,263.5C 206.079,264.48 213.245,264.813 220.5,264.5C 220.5,271.833 220.5,279.167 220.5,286.5C 196.831,286.667 173.164,286.5 149.5,286C 148.52,278.921 148.187,271.755 148.5,264.5C 156.087,264.814 163.587,264.481 171,263.5C 171.667,244.167 171.667,224.833 171,205.5C 145.908,204.505 120.741,204.172 95.5,204.5C 95.5,224.5 95.5,244.5 95.5,264.5C 102.833,264.5 110.167,264.5 117.5,264.5C 117.5,271.833 117.5,279.167 117.5,286.5C 93.8333,286.5 70.1667,286.5 46.5,286.5C 46.5,279.167 46.5,271.833 46.5,264.5C 53.7546,264.813 60.9213,264.48 68,263.5C 68.6667,219.833 68.6667,176.167 68,132.5C 60.9213,131.52 53.7546,131.187 46.5,131.5C 46.5,124.167 46.5,116.833 46.5,109.5 Z"/></g>
<g><path style="opacity:0.008" fill="#fefffe" d="M 142.5,118.5 C 143.525,118.897 143.692,119.563 143,120.5C 142.536,119.906 142.369,119.239 142.5,118.5 Z"/></g>
<g><path style="opacity:0.027" fill="#f1c6cb" d="M 1086.5,172.5 C 1090.81,176.454 1094.15,181.12 1096.5,186.5C 1093.53,183.358 1090.7,180.025 1088,176.5C 1087.21,175.255 1086.71,173.922 1086.5,172.5 Z"/></g>
<g><path style="opacity:1" fill="#c4707c" d="M 1155.5,179.5 C 1156.83,180.5 1158.17,181.5 1159.5,182.5C 1160.34,182.842 1160.67,183.508 1160.5,184.5C 1157.83,183.833 1156.17,182.167 1155.5,179.5 Z"/></g>
<g><path style="opacity:0.969" fill="#ecebeb" d="M 985.5,229.5 C 985.834,223.012 985.001,216.678 983,210.5C 972.613,186.389 955.113,178.889 930.5,188C 914.585,199.286 907.918,214.453 910.5,233.5C 906.162,214.464 912.496,198.964 929.5,187C 955.862,177.263 974.362,185.43 985,211.5C 985.925,215.445 986.425,219.445 986.5,223.5C 986.572,226.293 986.239,228.293 985.5,229.5 Z"/></g>
<g><path style="opacity:0.668" fill="#edecec" d="M 432.5,181.5 C 432.205,183.423 431.372,185.09 430,186.5C 429.667,185.833 429.333,185.167 429,184.5C 428.5,177.508 428.334,170.508 428.5,163.5C 413.833,163.5 399.167,163.5 384.5,163.5C 384.5,170.833 384.5,178.167 384.5,185.5C 392.752,185.184 400.919,185.518 409,186.5C 409.667,212.167 409.667,237.833 409,263.5C 400.919,264.482 392.752,264.816 384.5,264.5C 384.5,271.833 384.5,279.167 384.5,286.5C 409.833,286.5 435.167,286.5 460.5,286.5C 460.5,279.167 460.5,271.833 460.5,264.5C 451.582,264.817 442.749,264.484 434,263.5C 433.333,251.167 433.333,238.833 434,226.5C 434.081,221.632 434.914,217.632 436.5,214.5C 435.631,230.816 435.297,247.15 435.5,263.5C 442.422,263.812 449.256,263.479 456,262.5C 457.734,263.249 459.567,263.749 461.5,264C 461.789,271.073 461.789,278.906 461.5,287.5C 436.007,287.532 410.674,287.532 385.5,287.5C 384.353,287.182 383.519,286.516 383,285.5C 382.643,279.053 382.476,272.72 382.5,266.5C 383,265.5 383.5,264.5 384,263.5C 391.683,263.406 399.516,263.406 407.5,263.5C 407.5,237.833 407.5,212.167 407.5,186.5C 399.472,186.831 391.472,186.498 383.5,185.5C 382.275,177.704 382.275,169.704 383.5,161.5C 398.837,161.333 414.17,161.5 429.5,162C 430.314,168.753 430.814,175.586 431,182.5C 431.383,181.944 431.883,181.611 432.5,181.5 Z"/></g>
<g><path style="opacity:0.982" fill="#eeeeee" d="M 438.5,209.5 C 437.957,209.44 437.624,209.107 437.5,208.5C 438.763,205.397 440.263,202.397 442,199.5C 452.007,189.446 464.174,185.113 478.5,186.5C 478.5,178.167 478.5,169.833 478.5,161.5C 473.305,161.821 468.305,161.487 463.5,160.5C 469.053,159.352 474.553,159.352 480,160.5C 480.667,169.5 480.667,178.5 480,187.5C 465.606,186.166 453.273,190.5 443,200.5C 441.234,203.414 439.734,206.414 438.5,209.5 Z"/></g>
<g><path style="opacity:0.514" fill="#edbac5" d="M 1160.5,184.5 C 1162.26,185.262 1163.26,186.596 1163.5,188.5C 1161.74,187.738 1160.74,186.404 1160.5,184.5 Z"/></g>
<g><path style="opacity:0.463" fill="#eab8c2" d="M 1096.5,186.5 C 1099.17,188.173 1101.17,190.507 1102.5,193.5C 1103.11,194.391 1103.44,195.391 1103.5,196.5C 1100.42,193.743 1098.09,190.41 1096.5,186.5 Z"/></g>
<g><path style="opacity:0.384" fill="#f2ced8" d="M 1163.5,188.5 C 1165.26,189.262 1166.26,190.596 1166.5,192.5C 1164.74,191.738 1163.74,190.404 1163.5,188.5 Z"/></g>
<g><path style="opacity:1" fill="#b75c6d" d="M 1102.5,193.5 C 1103.75,193.577 1104.58,194.244 1105,195.5C 1105.76,197.066 1105.6,198.399 1104.5,199.5C 1104.74,198.209 1104.4,197.209 1103.5,196.5C 1103.44,195.391 1103.11,194.391 1102.5,193.5 Z"/></g>
<g><path style="opacity:0.803" fill="#e7e7e7" d="M 838.5,177.5 C 837.342,180.483 835.675,183.15 833.5,185.5C 832.503,178.197 832.169,170.863 832.5,163.5C 817.833,163.5 803.167,163.5 788.5,163.5C 788.5,170.833 788.5,178.167 788.5,185.5C 796.5,185.5 804.5,185.5 812.5,185.5C 812.667,211.502 812.5,237.502 812,263.5C 803.919,264.482 795.752,264.816 787.5,264.5C 787.369,263.761 787.536,263.094 788,262.5C 795.667,263.833 803.333,263.833 811,262.5C 811.805,237.137 811.639,211.803 810.5,186.5C 803.91,186.189 797.41,186.522 791,187.5C 789.667,186.833 788.333,186.167 787,185.5C 786.186,177.587 786.353,169.754 787.5,162C 802.5,161.333 817.5,161.333 832.5,162C 833.314,168.753 833.814,175.586 834,182.5C 835.049,180.382 836.549,178.716 838.5,177.5 Z"/></g>
<g><path style="opacity:0.659" fill="#e2afb8" d="M 1103.5,196.5 C 1104.4,197.209 1104.74,198.209 1104.5,199.5C 1102.25,202.328 1100.25,205.328 1098.5,208.5C 1097.83,208.833 1097.17,209.167 1096.5,209.5C 1099.11,205.283 1101.44,200.95 1103.5,196.5 Z"/></g>
<g><path style="opacity:0.42" fill="#eae9ea" d="M 267.5,187.5 C 262.198,191.97 257.364,196.97 253,202.5C 242.094,227.563 247.927,247.563 270.5,262.5C 254.297,254.954 246.297,242.121 246.5,224C 246.163,207.496 253.163,195.329 267.5,187.5 Z"/></g>
<g><path style="opacity:0.984" fill="#edecec" d="M 291.5,184.5 C 292.946,183.387 294.613,183.22 296.5,184C 318.085,193.999 326.919,210.833 323,234.5C 319.982,248.007 312.149,257.341 299.5,262.5C 311.829,255.321 319.329,244.655 322,230.5C 324.037,206.872 313.87,191.539 291.5,184.5 Z"/></g>
<g><path style="opacity:0.702" fill="#ebebeb" d="M 724.5,238.5 C 718.673,255.65 706.673,264.983 688.5,266.5C 663.54,263.371 650.54,249.204 649.5,224C 651.047,199.289 664.047,185.455 688.5,182.5C 712.701,185.37 725.701,199.037 727.5,223.5C 727.45,228.823 726.45,233.823 724.5,238.5 Z M 724.5,238.5 C 725.072,233.83 725.739,229.163 726.5,224.5C 724.89,200.728 712.39,187.062 689,183.5C 667.384,185.945 654.55,197.945 650.5,219.5C 649.752,240.333 658.919,255 678,263.5C 699.564,266.962 715.064,258.629 724.5,238.5 Z"/></g>
<g><path style="opacity:1" fill="#a9364b" d="M 1164.5,203.5 C 1160.65,209.862 1156.32,215.862 1151.5,221.5C 1152.75,216.675 1154.75,212.342 1157.5,208.5C 1158.5,208.5 1159.5,208.5 1160.5,208.5C 1160.2,205.412 1161.53,203.746 1164.5,203.5 Z"/></g>
<g><path style="opacity:0.443" fill="#f7ebb9" d="M 1178.5,209.5 C 1180.26,210.262 1181.26,211.596 1181.5,213.5C 1180.5,212.833 1179.5,212.167 1178.5,211.5C 1178.5,210.833 1178.5,210.167 1178.5,209.5 Z"/></g>
<g><path style="opacity:0.533" fill="#e2a9b7" d="M 1096.5,209.5 C 1096.26,211.404 1095.26,212.738 1093.5,213.5C 1093.74,211.596 1094.74,210.262 1096.5,209.5 Z"/></g>
<g><path style="opacity:1" fill="#d0b663" d="M 1178.5,211.5 C 1179.5,212.167 1180.5,212.833 1181.5,213.5C 1182.34,213.842 1182.67,214.508 1182.5,215.5C 1182.5,216.167 1182.5,216.833 1182.5,217.5C 1180.78,215.777 1179.45,213.777 1178.5,211.5 Z"/></g>
<g><path style="opacity:0.714" fill="#e7acb8" d="M 1093.5,213.5 C 1092.47,216.891 1090.47,219.557 1087.5,221.5C 1089.02,218.467 1091.02,215.8 1093.5,213.5 Z"/></g>
<g><path style="opacity:0.149" fill="#f1c7ce" d="M 1166.5,192.5 C 1169.28,194.052 1170.44,196.386 1170,199.5C 1164.06,207.749 1157.89,215.749 1151.5,223.5C 1151.5,222.833 1151.5,222.167 1151.5,221.5C 1156.32,215.862 1160.65,209.862 1164.5,203.5C 1166.2,201.789 1167.53,199.789 1168.5,197.5C 1167.81,195.823 1167.15,194.156 1166.5,192.5 Z"/></g>
<g><path style="opacity:1" fill="#c19c29" d="M 1178.5,209.5 C 1178.5,210.167 1178.5,210.833 1178.5,211.5C 1179.45,213.777 1180.78,215.777 1182.5,217.5C 1183.5,218.167 1184.5,218.833 1185.5,219.5C 1185.5,220.167 1185.5,220.833 1185.5,221.5C 1183.2,220.171 1180.86,218.838 1178.5,217.5C 1177.55,215.955 1177.21,214.288 1177.5,212.5C 1173.96,212.239 1172.12,213.905 1172,217.5C 1169.56,219.629 1167.06,221.629 1164.5,223.5C 1167.08,219.067 1169.92,214.734 1173,210.5C 1174,209.5 1175,208.5 1176,207.5C 1176.71,208.381 1177.54,209.047 1178.5,209.5 Z"/></g>
<g><path style="opacity:0.7" fill="#ececec" d="M 605.5,193.5 C 594.129,225.657 582.129,257.49 569.5,289C 566.288,290.079 562.955,290.579 559.5,290.5C 554.409,290.045 549.742,289.878 545.5,290C 540.128,277.757 535.461,265.257 531.5,252.5C 536.737,264.2 541.404,276.2 545.5,288.5C 553.196,288.831 560.862,288.497 568.5,287.5C 580.667,255.833 592.833,224.167 605,192.5C 605.399,192.728 605.565,193.062 605.5,193.5 Z"/></g>
<g><path style="opacity:1" fill="#a8344a" d="M 1098.5,208.5 C 1097.81,211.353 1096.48,213.853 1094.5,216C 1094.64,216.772 1094.98,217.439 1095.5,218C 1092.95,220.054 1090.29,221.887 1087.5,223.5C 1087.5,222.833 1087.5,222.167 1087.5,221.5C 1090.47,219.557 1092.47,216.891 1093.5,213.5C 1095.26,212.738 1096.26,211.404 1096.5,209.5C 1097.17,209.167 1097.83,208.833 1098.5,208.5 Z"/></g>
<g><path style="opacity:0.4" fill="#ede1af" d="M 1182.5,215.5 C 1184.26,216.262 1185.26,217.596 1185.5,219.5C 1184.5,218.833 1183.5,218.167 1182.5,217.5C 1182.5,216.833 1182.5,216.167 1182.5,215.5 Z"/></g>
<g><path style="opacity:0.271" fill="#f2e4b0" d="M 1178.5,209.5 C 1177.54,209.047 1176.71,208.381 1176,207.5C 1175,208.5 1174,209.5 1173,210.5C 1169.92,214.734 1167.08,219.067 1164.5,223.5C 1163.03,224.436 1162.03,225.77 1161.5,227.5C 1158.68,230.475 1156.34,233.808 1154.5,237.5C 1153.5,238.167 1152.5,238.833 1151.5,239.5C 1158.39,228.594 1165.73,217.928 1173.5,207.5C 1176.17,205.91 1177.84,206.577 1178.5,209.5 Z"/></g>
<g><path style="opacity:0.51" fill="#f2e6ae" d="M 1185.5,219.5 C 1187.26,220.262 1188.26,221.596 1188.5,223.5C 1187.5,222.833 1186.5,222.167 1185.5,221.5C 1185.5,220.833 1185.5,220.167 1185.5,219.5 Z"/></g>
<g><path style="opacity:1" fill="#c4960f" d="M 1185.5,221.5 C 1186.5,222.167 1187.5,222.833 1188.5,223.5C 1188.43,225.027 1189.09,226.027 1190.5,226.5C 1190.74,228.404 1191.74,229.738 1193.5,230.5C 1193.43,232.027 1194.09,233.027 1195.5,233.5C 1195.74,235.404 1196.74,236.738 1198.5,237.5C 1200.06,241.392 1202.4,244.725 1205.5,247.5C 1205.43,249.027 1206.09,250.027 1207.5,250.5C 1208.08,252.749 1209.41,254.415 1211.5,255.5C 1211.74,257.404 1212.74,258.738 1214.5,259.5C 1215.01,262.674 1216.68,265.008 1219.5,266.5C 1219.43,268.027 1220.09,269.027 1221.5,269.5C 1221.43,271.027 1222.09,272.027 1223.5,272.5C 1223.74,274.404 1224.74,275.738 1226.5,276.5C 1227.08,278.749 1228.41,280.415 1230.5,281.5C 1230.5,282.167 1230.5,282.833 1230.5,283.5C 1210.53,285.488 1190.19,286.155 1169.5,285.5C 1169.59,282.042 1167.92,280.042 1164.5,279.5C 1162.63,276.418 1160.29,273.751 1157.5,271.5C 1156.99,268.326 1155.32,265.992 1152.5,264.5C 1151.99,261.326 1150.32,258.992 1147.5,257.5C 1146.91,255.145 1145.91,252.978 1144.5,251C 1147.07,247.274 1149.4,243.44 1151.5,239.5C 1152.5,238.833 1153.5,238.167 1154.5,237.5C 1157.82,234.875 1160.15,231.542 1161.5,227.5C 1162.03,225.77 1163.03,224.436 1164.5,223.5C 1167.06,221.629 1169.56,219.629 1172,217.5C 1172.12,213.905 1173.96,212.239 1177.5,212.5C 1177.21,214.288 1177.55,215.955 1178.5,217.5C 1180.86,218.838 1183.2,220.171 1185.5,221.5 Z"/></g>
<g><path style="opacity:0.376" fill="#eebdc6" d="M 1087.5,221.5 C 1087.5,222.167 1087.5,222.833 1087.5,223.5C 1086.83,223.833 1086.17,224.167 1085.5,224.5C 1085.43,222.973 1086.09,221.973 1087.5,221.5 Z"/></g>
<g><path style="opacity:0.427" fill="#f4e3b6" d="M 1188.5,223.5 C 1189.91,223.973 1190.57,224.973 1190.5,226.5C 1189.09,226.027 1188.43,225.027 1188.5,223.5 Z"/></g>
<g><path style="opacity:0.708" fill="#e9e8e8" d="M 844.5,202.5 C 841.285,211.075 839.285,219.908 838.5,229C 838.399,240.021 838.565,251.188 839,262.5C 847.415,263.483 855.915,263.817 864.5,263.5C 855.682,264.493 846.682,264.827 837.5,264.5C 837.333,250.163 837.5,235.829 838,221.5C 838.706,216.01 840.039,210.677 842,205.5C 842.377,204.058 843.21,203.058 844.5,202.5 Z"/></g>
<g><path style="opacity:0.355" fill="#edebec" d="M 964.5,285.5 C 970.897,282.072 977.23,277.572 983.5,272C 984.448,271.517 985.448,271.351 986.5,271.5C 986.5,276.5 986.5,281.5 986.5,286.5C 1001.84,286.667 1017.17,286.5 1032.5,286C 1033.64,279.248 1033.81,272.414 1033,265.5C 1025.92,264.52 1018.75,264.187 1011.5,264.5C 1011.5,220.167 1011.5,175.833 1011.5,131.5C 1018.75,131.813 1025.92,131.48 1033,130.5C 1033.81,123.586 1033.64,116.752 1032.5,110C 1017.17,109.5 1001.84,109.333 986.5,109.5C 986.667,131.836 986.5,154.169 986,176.5C 985.667,176.833 985.333,177.167 985,177.5C 980.216,172.875 975.049,168.875 969.5,165.5C 975.252,167.252 980.252,170.252 984.5,174.5C 985.808,156.151 985.808,137.818 984.5,119.5C 985.021,115.809 985.688,112.143 986.5,108.5C 1001.79,108.35 1017.46,108.35 1033.5,108.5C 1034.66,116.479 1034.83,124.479 1034,132.5C 1026.8,132.849 1019.8,133.849 1013,135.5C 1012.5,177.832 1012.33,220.165 1012.5,262.5C 1019.79,263.392 1027.12,263.726 1034.5,263.5C 1034.67,271.507 1034.5,279.507 1034,287.5C 1033.59,287.957 1033.09,288.291 1032.5,288.5C 1016.88,287.516 1001.21,287.182 985.5,287.5C 985.827,282.786 985.493,278.12 984.5,273.5C 978.772,279.032 972.106,283.032 964.5,285.5 Z"/></g>
<g><path style="opacity:0.659" fill="#e7b3bc" d="M 1085.5,224.5 C 1084.57,227.37 1082.9,229.704 1080.5,231.5C 1081.43,228.63 1083.1,226.296 1085.5,224.5 Z"/></g>
<g><path style="opacity:0.039" fill="#f2cbd1" d="M 1151.5,223.5 C 1151.29,224.922 1150.79,226.255 1150,227.5C 1148.28,230.288 1146.11,232.621 1143.5,234.5C 1145.4,230.268 1148.07,226.601 1151.5,223.5 Z"/></g>
<g><path style="opacity:0.255" fill="#fae5b8" d="M 1190.5,226.5 C 1192.26,227.262 1193.26,228.596 1193.5,230.5C 1191.74,229.738 1190.74,228.404 1190.5,226.5 Z"/></g>
<g><path style="opacity:1" fill="#c29d37" d="M 1161.5,227.5 C 1160.15,231.542 1157.82,234.875 1154.5,237.5C 1156.34,233.808 1158.68,230.475 1161.5,227.5 Z"/></g>
<g><path style="opacity:0.282" fill="#f3e9af" d="M 1193.5,230.5 C 1194.91,230.973 1195.57,231.973 1195.5,233.5C 1194.09,233.027 1193.43,232.027 1193.5,230.5 Z"/></g>
<g><path style="opacity:0.51" fill="#eab0bb" d="M 1080.5,231.5 C 1080.44,232.609 1080.11,233.609 1079.5,234.5C 1078.83,234.833 1078.17,235.167 1077.5,235.5C 1077.74,233.596 1078.74,232.262 1080.5,231.5 Z"/></g>
<g><path style="opacity:0.388" fill="#f2e3b1" d="M 1195.5,233.5 C 1197.26,234.262 1198.26,235.596 1198.5,237.5C 1196.74,236.738 1195.74,235.404 1195.5,233.5 Z"/></g>
<g><path style="opacity:0.094" fill="#f3cbd2" d="M 1143.5,234.5 C 1142.57,237.37 1140.9,239.704 1138.5,241.5C 1139.43,238.63 1141.1,236.296 1143.5,234.5 Z"/></g>
<g><path style="opacity:0.408" fill="#edbbc6" d="M 1077.5,235.5 C 1077.57,237.027 1076.91,238.027 1075.5,238.5C 1075.43,236.973 1076.09,235.973 1077.5,235.5 Z"/></g>
<g><path style="opacity:0.514" fill="#f0bfc9" d="M 1075.5,238.5 C 1074.92,240.749 1073.59,242.415 1071.5,243.5C 1072.08,241.251 1073.41,239.585 1075.5,238.5 Z"/></g>
<g><path style="opacity:1" fill="#ab3449" d="M 1079.5,234.5 C 1078.25,241.432 1074.58,246.765 1068.5,250.5C 1069.76,248.313 1070.76,245.98 1071.5,243.5C 1073.59,242.415 1074.92,240.749 1075.5,238.5C 1076.91,238.027 1077.57,237.027 1077.5,235.5C 1078.17,235.167 1078.83,234.833 1079.5,234.5 Z"/></g>
<g><path style="opacity:0.243" fill="#eedea6" d="M 1198.5,237.5 C 1201.6,240.275 1203.94,243.608 1205.5,247.5C 1202.4,244.725 1200.06,241.392 1198.5,237.5 Z"/></g>
<g><path style="opacity:0.031" fill="#f5c9cb" d="M 1138.5,241.5 C 1138.26,243.404 1137.26,244.738 1135.5,245.5C 1135.74,243.596 1136.74,242.262 1138.5,241.5 Z"/></g>
<g><path style="opacity:0.325" fill="#f2e4ad" d="M 1151.5,239.5 C 1149.4,243.44 1147.07,247.274 1144.5,251C 1145.91,252.978 1146.91,255.145 1147.5,257.5C 1143.83,255.562 1142.66,252.562 1144,248.5C 1146.36,245.31 1148.86,242.31 1151.5,239.5 Z"/></g>
<g><path style="opacity:0.412" fill="#e6b0bb" d="M 1071.5,243.5 C 1070.76,245.98 1069.76,248.313 1068.5,250.5C 1064.45,254.254 1061.12,258.587 1058.5,263.5C 1057.83,263.833 1057.17,264.167 1056.5,264.5C 1061.12,257.216 1066.12,250.216 1071.5,243.5 Z"/></g>
<g><path style="opacity:0.588" fill="#ebdd9f" d="M 1205.5,247.5 C 1206.91,247.973 1207.57,248.973 1207.5,250.5C 1206.09,250.027 1205.43,249.027 1205.5,247.5 Z"/></g>
<g><path style="opacity:0.208" fill="#f2c9d2" d="M 1135.5,245.5 C 1133.94,249.392 1131.6,252.725 1128.5,255.5C 1130.06,251.608 1132.4,248.275 1135.5,245.5 Z"/></g>
<g><path style="opacity:0.533" fill="#efde9f" d="M 1207.5,250.5 C 1209.59,251.585 1210.92,253.251 1211.5,255.5C 1209.41,254.415 1208.08,252.749 1207.5,250.5 Z"/></g>
<g><path style="opacity:0.978" fill="#ededed" d="M 698.5,287.5 C 703.315,285.427 708.649,282.927 714.5,280C 718.594,276.632 722.927,273.798 727.5,271.5C 727.5,276.5 727.5,281.5 727.5,286.5C 742.833,286.5 758.167,286.5 773.5,286.5C 773.5,279.167 773.5,271.833 773.5,264.5C 766.245,264.813 759.079,264.48 752,263.5C 751.333,237.833 751.333,212.167 752,186.5C 759.079,185.52 766.245,185.187 773.5,185.5C 773.5,178.167 773.5,170.833 773.5,163.5C 758.167,163.5 742.833,163.5 727.5,163.5C 727.666,167.846 727.499,172.179 727,176.5C 726.586,176.957 726.086,177.291 725.5,177.5C 722.121,174.449 718.788,171.449 715.5,168.5C 719.008,169.663 722.008,171.663 724.5,174.5C 725.195,170.287 725.861,166.121 726.5,162C 742.5,161.333 758.5,161.333 774.5,162C 775.647,169.754 775.814,177.587 775,185.5C 772.667,186.167 770.333,186.833 768,187.5C 763.263,186.531 758.43,186.197 753.5,186.5C 753.5,212.167 753.5,237.833 753.5,263.5C 760.259,263.548 766.759,263.215 773,262.5C 773.667,263.167 774.333,263.833 775,264.5C 775.5,272.159 775.666,279.826 775.5,287.5C 759.256,287.175 743.089,287.509 727,288.5C 725.721,283.679 725.054,278.679 725,273.5C 717.207,280.806 708.373,285.473 698.5,287.5 Z"/></g>
<g><path style="opacity:0.635" fill="#f0dfa8" d="M 1211.5,255.5 C 1213.26,256.262 1214.26,257.596 1214.5,259.5C 1212.74,258.738 1211.74,257.404 1211.5,255.5 Z"/></g>
<g><path style="opacity:0.725" fill="#ecebeb" d="M 220.5,205.5 C 215.562,232.068 222.562,255.068 241.5,274.5C 235.853,271.018 231.353,266.351 228,260.5C 218.255,243.335 215.755,225.001 220.5,205.5 Z"/></g>
<g><path style="opacity:0.278" fill="#f3e8b6" d="M 1147.5,257.5 C 1150.32,258.992 1151.99,261.326 1152.5,264.5C 1150.1,262.704 1148.43,260.37 1147.5,257.5 Z"/></g>
<g><path style="opacity:0.669" fill="#ebebeb" d="M 909.5,169.5 C 899.614,177.25 892.114,186.917 887,198.5C 876.702,227.472 882.536,252.639 904.5,274C 904.272,274.399 903.938,274.565 903.5,274.5C 888.2,261.384 880.533,244.55 880.5,224C 880.659,200.503 890.326,182.336 909.5,169.5 Z"/></g>
<g><path style="opacity:0.047" fill="#f5d1d6" d="M 1128.5,255.5 C 1126.6,259.732 1123.93,263.399 1120.5,266.5C 1121.17,264.833 1121.83,263.167 1122.5,261.5C 1124.19,259.146 1126.19,257.146 1128.5,255.5 Z"/></g>
<g><path style="opacity:0.376" fill="#f6e4bd" d="M 1214.5,259.5 C 1216.55,261.55 1218.21,263.883 1219.5,266.5C 1216.68,265.008 1215.01,262.674 1214.5,259.5 Z"/></g>
<g><path style="opacity:0.765" fill="#ecebeb" d="M 655.5,166.5 C 639.052,176.8 628.552,191.467 624,210.5C 619.293,242.58 630.793,266.747 658.5,283C 657.906,283.464 657.239,283.631 656.5,283.5C 633.828,270.507 622.162,250.841 621.5,224.5C 621.603,202.795 629.936,184.962 646.5,171C 649.243,168.962 652.243,167.462 655.5,166.5 Z"/></g>
<g><path style="opacity:1" fill="#aa3f51" d="M 1122.5,261.5 C 1121.83,263.167 1121.17,264.833 1120.5,266.5C 1120.5,267.167 1120.17,267.5 1119.5,267.5C 1116.45,270.545 1113.79,273.878 1111.5,277.5C 1113.21,270.794 1116.88,265.461 1122.5,261.5 Z"/></g>
<g><path style="opacity:0.314" fill="#efc1ca" d="M 1056.5,264.5 C 1054.6,268.732 1051.93,272.399 1048.5,275.5C 1050.4,271.268 1053.07,267.601 1056.5,264.5 Z"/></g>
<g><path style="opacity:0.263" fill="#f4e2af" d="M 1219.5,266.5 C 1220.91,266.973 1221.57,267.973 1221.5,269.5C 1220.09,269.027 1219.43,268.027 1219.5,266.5 Z"/></g>
<g><path style="opacity:0.631" fill="#ebdcab" d="M 1152.5,264.5 C 1155.32,265.992 1156.99,268.326 1157.5,271.5C 1155.1,269.704 1153.43,267.37 1152.5,264.5 Z"/></g>
<g><path style="opacity:1" fill="#a64055" d="M 1058.5,263.5 C 1057.87,266.09 1056.7,268.423 1055,270.5C 1052.3,274.025 1049.47,277.358 1046.5,280.5C 1047.17,278.833 1047.83,277.167 1048.5,275.5C 1051.93,272.399 1054.6,268.732 1056.5,264.5C 1057.17,264.167 1057.83,263.833 1058.5,263.5 Z"/></g>
<g><path style="opacity:0.627" fill="#e8d69d" d="M 1221.5,269.5 C 1222.91,269.973 1223.57,270.973 1223.5,272.5C 1222.09,272.027 1221.43,271.027 1221.5,269.5 Z"/></g>
<g><path style="opacity:0.11" fill="#f2c7cd" d="M 1119.5,267.5 C 1117.24,272.365 1114.24,276.698 1110.5,280.5C 1110.56,279.391 1110.89,278.391 1111.5,277.5C 1113.79,273.878 1116.45,270.545 1119.5,267.5 Z"/></g>
<g><path style="opacity:0.745" fill="#e9d99a" d="M 1223.5,272.5 C 1225.26,273.262 1226.26,274.596 1226.5,276.5C 1224.74,275.738 1223.74,274.404 1223.5,272.5 Z"/></g>
<g><path style="opacity:0.333" fill="#f0e1ac" d="M 1157.5,271.5 C 1160.29,273.751 1162.63,276.418 1164.5,279.5C 1166.02,281.216 1167.02,283.216 1167.5,285.5C 1163.68,281.194 1160.35,276.527 1157.5,271.5 Z"/></g>
<g><path style="opacity:0.4" fill="#efc4cb" d="M 1048.5,275.5 C 1047.83,277.167 1047.17,278.833 1046.5,280.5C 1045.09,280.973 1044.43,281.973 1044.5,283.5C 1043.09,283.973 1042.43,284.973 1042.5,286.5C 1042.5,286.833 1042.5,287.167 1042.5,287.5C 1041.45,287.649 1040.45,287.483 1039.5,287C 1042.16,282.825 1045.16,278.992 1048.5,275.5 Z"/></g>
<g><path style="opacity:0.38" fill="#f4e4b3" d="M 1226.5,276.5 C 1228.59,277.585 1229.92,279.251 1230.5,281.5C 1228.41,280.415 1227.08,278.749 1226.5,276.5 Z"/></g>
<g><path style="opacity:1" fill="#a93950" d="M 1111.5,277.5 C 1110.89,278.391 1110.56,279.391 1110.5,280.5C 1110.5,281.167 1110.17,281.5 1109.5,281.5C 1107.61,282.973 1105.94,284.64 1104.5,286.5C 1083.83,286.5 1063.17,286.5 1042.5,286.5C 1042.43,284.973 1043.09,283.973 1044.5,283.5C 1053.48,284.832 1062.81,285.498 1072.5,285.5C 1083.52,285.44 1094.52,285.107 1105.5,284.5C 1105.73,282.567 1106.56,280.9 1108,279.5C 1108.82,278.177 1109.98,277.511 1111.5,277.5 Z"/></g>
<g><path style="opacity:1" fill="#c29d32" d="M 1164.5,279.5 C 1167.92,280.042 1169.59,282.042 1169.5,285.5C 1190.19,286.155 1210.53,285.488 1230.5,283.5C 1231.4,284.209 1231.74,285.209 1231.5,286.5C 1230.17,286.5 1228.83,286.5 1227.5,286.5C 1207.5,286.5 1187.5,286.5 1167.5,286.5C 1167.5,286.167 1167.5,285.833 1167.5,285.5C 1167.02,283.216 1166.02,281.216 1164.5,279.5 Z"/></g>
<g><path style="opacity:0.302" fill="#e7daaa" d="M 1230.5,281.5 C 1234.41,284.315 1234.25,286.648 1230,288.5C 1229.1,288.257 1228.26,287.923 1227.5,287.5C 1227.5,287.167 1227.5,286.833 1227.5,286.5C 1228.83,286.5 1230.17,286.5 1231.5,286.5C 1231.74,285.209 1231.4,284.209 1230.5,283.5C 1230.5,282.833 1230.5,282.167 1230.5,281.5 Z"/></g>
<g><path style="opacity:0.854" fill="#ebebeb" d="M 301.5,285.5 C 308.459,281.778 315.459,277.111 322.5,271.5C 323.494,276.456 323.827,281.456 323.5,286.5C 339.167,286.5 354.833,286.5 370.5,286.5C 370.5,279.167 370.5,271.833 370.5,264.5C 363.245,264.813 356.079,264.48 349,263.5C 348.5,237.502 348.333,211.502 348.5,185.5C 355.833,185.5 363.167,185.5 370.5,185.5C 370.5,178.167 370.5,170.833 370.5,163.5C 354.833,163.5 339.167,163.5 323.5,163.5C 323.5,167.833 323.5,172.167 323.5,176.5C 318.682,174.253 314.348,171.253 310.5,167.5C 314.499,168.928 317.999,171.261 321,174.5C 322.776,171.444 322.943,168.278 321.5,165C 322.167,164 322.833,163 323.5,162C 339.167,161.333 354.833,161.333 370.5,162C 371,162.5 371.5,163 372,163.5C 372.667,170.833 372.667,178.167 372,185.5C 370.667,186.167 369.333,186.833 368,187.5C 362.259,186.525 356.425,186.192 350.5,186.5C 350.828,211.741 350.495,236.908 349.5,262C 352.816,263.13 356.316,263.63 360,263.5C 363.418,263.481 366.751,263.147 370,262.5C 370.833,263.333 371.667,264.167 372.5,265C 372.36,271.439 372.193,278.273 372,285.5C 371.581,286.672 370.915,287.672 370,288.5C 355.943,287.214 341.61,287.214 327,288.5C 325.004,288.004 323.337,287.004 322,285.5C 322.521,281.143 322.355,277.143 321.5,273.5C 315.74,279.045 309.073,283.045 301.5,285.5 Z"/></g>
<g><path style="opacity:0.863" fill="#e5e4e4" d="M 864.5,287.5 C 838.617,287.534 812.95,287.534 787.5,287.5C 813.167,286.167 838.833,286.167 864.5,287.5 Z"/></g>
<g><path style="opacity:0.698" fill="#edb6c1" d="M 1042.5,287.5 C 1042.5,287.167 1042.5,286.833 1042.5,286.5C 1063.17,286.5 1083.83,286.5 1104.5,286.5C 1104.5,286.833 1104.5,287.167 1104.5,287.5C 1084.19,288.332 1063.52,288.332 1042.5,287.5 Z"/></g>
<g><path style="opacity:0.051" fill="#f2c4cf" d="M 1109.5,281.5 C 1108.75,284.362 1107.09,286.362 1104.5,287.5C 1104.5,287.167 1104.5,286.833 1104.5,286.5C 1105.94,284.64 1107.61,282.973 1109.5,281.5 Z"/></g>
<g><path style="opacity:0.621" fill="#ecda95" d="M 1167.5,286.5 C 1187.5,286.5 1207.5,286.5 1227.5,286.5C 1227.5,286.833 1227.5,287.167 1227.5,287.5C 1209.16,287.365 1190.66,287.698 1172,288.5C 1170.27,288.101 1168.77,287.434 1167.5,286.5 Z"/></g>
<g><path style="opacity:0.783" fill="#ebebeb" d="M 241.5,274.5 C 258.571,287.781 277.571,291.447 298.5,285.5C 299.107,285.624 299.44,285.957 299.5,286.5C 280.759,292.777 262.759,290.277 245.5,279C 243.808,277.693 242.475,276.193 241.5,274.5 Z"/></g>
<g><path style="opacity:0.811" fill="#ecebec" d="M 962.5,286.5 C 941.699,293.296 922.699,289.963 905.5,276.5C 905.435,276.062 905.601,275.728 906,275.5C 922.62,288.104 940.953,291.437 961,285.5C 961.765,285.57 962.265,285.903 962.5,286.5 Z"/></g>
</svg>