<svg xmlns="http://www.w3.org/2000/svg" version="1.1" width="1920px" height="717px" style="shape-rendering:geometricPrecision; text-rendering:geometricPrecision; image-rendering:optimizeQuality; fill-rule:evenodd; clip-rule:evenodd" xmlns:xlink="http://www.w3.org/1999/xlink">
<g><path style="opacity:0.998" fill="#a131ea" d="M 370.5,104.5 C 370.821,106.048 371.821,106.715 373.5,106.5C 374.167,106.5 374.5,106.833 374.5,107.5C 375.287,109.104 376.62,109.771 378.5,109.5C 390.996,116.247 403.329,123.247 415.5,130.5C 415.821,132.048 416.821,132.715 418.5,132.5C 434.186,141.096 449.686,150.096 465,159.5C 465.5,181.831 465.667,204.164 465.5,226.5C 464.127,226.657 462.793,226.49 461.5,226C 455.219,222.074 448.886,218.24 442.5,214.5C 442.179,212.952 441.179,212.285 439.5,212.5C 423.573,203.896 407.907,194.896 392.5,185.5C 392.027,184.094 391.027,183.427 389.5,183.5C 382.682,180.594 376.348,176.927 370.5,172.5C 369.341,170.75 367.674,169.75 365.5,169.5C 360.815,167.103 356.149,164.603 351.5,162C 350.167,161.333 348.833,161.333 347.5,162C 309.721,183.467 272.221,205.3 235,227.5C 234.333,204.5 234.333,181.5 235,158.5C 259.51,144.334 284.01,130.334 308.5,116.5C 310.153,116.34 311.486,115.674 312.5,114.5C 321.666,108.08 331.332,102.413 341.5,97.5C 343.027,97.573 344.027,96.9063 344.5,95.5C 346.795,93.615 349.462,93.115 352.5,94C 358.647,97.328 364.647,100.828 370.5,104.5 Z"/></g>
<g><path style="opacity:0.306" fill="#34164a" d="M 344.5,95.5 C 344.027,96.9063 343.027,97.573 341.5,97.5C 341.973,96.0937 342.973,95.427 344.5,95.5 Z"/></g>
<g><path style="opacity:0.58" fill="#421a5b" d="M 370.5,104.5 C 371.71,104.932 372.71,105.599 373.5,106.5C 371.821,106.715 370.821,106.048 370.5,104.5 Z"/></g>
<g><path style="opacity:0.388" fill="#431d5f" d="M 374.5,107.5 C 376.38,107.229 377.713,107.896 378.5,109.5C 376.62,109.771 375.287,109.104 374.5,107.5 Z"/></g>
<g><path style="opacity:0.455" fill="#46175e" d="M 312.5,114.5 C 311.486,115.674 310.153,116.34 308.5,116.5C 309.287,114.896 310.62,114.229 312.5,114.5 Z"/></g>
<g><path style="opacity:0.502" fill="#3c1552" d="M 415.5,130.5 C 416.71,130.932 417.71,131.599 418.5,132.5C 416.821,132.715 415.821,132.048 415.5,130.5 Z"/></g>
<g><path style="opacity:0.686" fill="#511c71" d="M 365.5,169.5 C 367.674,169.75 369.341,170.75 370.5,172.5C 368.067,172.727 366.401,171.727 365.5,169.5 Z"/></g>
<g><path style="opacity:0.204" fill="#401856" d="M 389.5,183.5 C 391.027,183.427 392.027,184.094 392.5,185.5C 390.973,185.573 389.973,184.906 389.5,183.5 Z"/></g>
<g><path style="opacity:0.852" fill="#999999" d="M 758.5,185.5 C 738.833,185.5 719.167,185.5 699.5,185.5C 699.833,225.172 699.5,264.839 698.5,304.5C 696.43,303.097 694.763,301.43 693.5,299.5C 695.767,301.787 697.434,301.62 698.5,299C 697.354,261.238 697.187,223.404 698,185.5C 718.264,184.169 738.431,184.169 758.5,185.5 Z"/></g>
<g><path style="opacity:1" fill="#fcfcfc" d="M 758.5,185.5 C 758.5,301.167 758.5,416.833 758.5,532.5C 738.833,532.5 719.167,532.5 699.5,532.5C 699.831,524.804 699.497,517.138 698.5,509.5C 694.164,512.509 690.164,515.843 686.5,519.5C 679.101,525.179 670.768,529.179 661.5,531.5C 655.986,532.545 650.653,533.878 645.5,535.5C 644.791,536.404 643.791,536.737 642.5,536.5C 625.45,538.139 608.45,537.806 591.5,535.5C 560.277,529.558 535.61,513.558 517.5,487.5C 516,483.827 514,480.494 511.5,477.5C 510.833,477.5 510.5,477.167 510.5,476.5C 508.992,472.151 506.992,468.151 504.5,464.5C 500.785,458.022 498.452,451.022 497.5,443.5C 493.767,424.314 492.767,404.981 494.5,385.5C 494.389,384.883 494.056,384.383 493.5,384C 496.696,366.078 502.863,349.245 512,333.5C 514.604,329.95 517.437,326.616 520.5,323.5C 523.829,321.166 526.496,318.166 528.5,314.5C 528.5,312.5 529.5,311.5 531.5,311.5C 537.481,306.523 543.481,301.523 549.5,296.5C 561.024,287.692 574.024,282.025 588.5,279.5C 594.441,279.322 600.107,278.322 605.5,276.5C 619.198,275.04 632.531,275.707 645.5,278.5C 650.744,281.232 656.411,282.899 662.5,283.5C 673.86,286.946 684.193,292.279 693.5,299.5C 694.763,301.43 696.43,303.097 698.5,304.5C 699.5,264.839 699.833,225.172 699.5,185.5C 719.167,185.5 738.833,185.5 758.5,185.5 Z M 696.5,375.5 C 697.933,380.671 699.599,385.671 701.5,390.5C 702.669,401.994 702.669,412.994 701.5,423.5C 694.311,450.686 677.645,469.352 651.5,479.5C 643.748,481.12 636.082,482.454 628.5,483.5C 627.167,483.5 625.833,483.5 624.5,483.5C 616.438,482.555 608.105,480.888 599.5,478.5C 594.516,475.341 589.182,472.674 583.5,470.5C 577.549,464.213 571.549,457.88 565.5,451.5C 549.339,421.719 549.506,392.053 566,362.5C 587.828,334.653 615.995,325.487 650.5,335C 671.384,342.395 686.717,355.895 696.5,375.5 Z"/></g>
<g><path style="opacity:0.333" fill="#44185f" d="M 439.5,212.5 C 441.179,212.285 442.179,212.952 442.5,214.5C 441.29,214.068 440.29,213.401 439.5,212.5 Z"/></g>
<g><path style="opacity:0.861" fill="#a0a0a0" d="M 942.5,276.5 C 926.168,275.187 909.835,275.187 893.5,276.5C 901.793,274.974 910.293,273.974 919,273.5C 927.052,273.942 934.885,274.942 942.5,276.5 Z"/></g>
<g><path style="opacity:1" fill="#fbfbfb" d="M 942.5,276.5 C 946.911,278.13 951.578,279.13 956.5,279.5C 966.077,281.526 975.077,285.026 983.5,290C 1006.68,304.865 1023.85,325.032 1035,350.5C 1037.23,356.687 1038.73,363.021 1039.5,369.5C 1040.27,375.004 1041.27,380.338 1042.5,385.5C 1043.68,394.891 1043.68,404.224 1042.5,413.5C 1041.52,416.962 1041.19,420.629 1041.5,424.5C 976.833,424.5 912.167,424.5 847.5,424.5C 847.334,428.514 847.501,432.514 848,436.5C 848.383,437.056 848.883,437.389 849.5,437.5C 858.825,465.519 878.158,481.852 907.5,486.5C 912.077,487.99 916.91,488.656 922,488.5C 927.09,488.656 931.923,487.99 936.5,486.5C 944.575,484.641 952.575,482.141 960.5,479C 966.189,475.823 971.856,472.657 977.5,469.5C 980.111,468.066 982.611,466.399 985,464.5C 987.437,465.8 989.937,466.8 992.5,467.5C 1005.02,474.056 1017.35,480.889 1029.5,488C 1030.45,488.718 1030.62,489.551 1030,490.5C 1008.15,515.339 980.984,530.672 948.5,536.5C 941.938,536.337 935.605,537.004 929.5,538.5C 912.835,539.372 896.502,538.205 880.5,535C 874.528,533.293 868.861,531.126 863.5,528.5C 859.787,526.315 855.787,524.648 851.5,523.5C 837.178,516.678 825.178,507.011 815.5,494.5C 813.6,490.268 810.933,486.601 807.5,483.5C 797.937,470.025 791.937,455.025 789.5,438.5C 789.706,431.604 789.039,424.937 787.5,418.5C 786.199,411.197 786.199,403.864 787.5,396.5C 788.996,390.395 789.663,384.062 789.5,377.5C 789.433,376.041 789.766,374.708 790.5,373.5C 792.451,369.126 793.784,364.46 794.5,359.5C 796.718,349.071 801.051,339.737 807.5,331.5C 810.898,328.373 813.565,324.707 815.5,320.5C 830.144,301.674 848.811,288.507 871.5,281C 878.868,278.282 886.202,276.782 893.5,276.5C 909.835,275.187 926.168,275.187 942.5,276.5 Z M 980.5,369.5 C 980.892,372.146 980.892,374.646 980.5,377C 936.835,377.5 893.168,377.667 849.5,377.5C 849.5,376.5 849.5,375.5 849.5,374.5C 857.077,350.763 873.077,335.596 897.5,329C 927.219,321.141 952.052,328.974 972,352.5C 975.511,357.894 978.345,363.561 980.5,369.5 Z"/></g>
<g><path style="opacity:0.592" fill="#a0a0a0" d="M 605.5,276.5 C 600.107,278.322 594.441,279.322 588.5,279.5C 591.142,278.194 593.975,277.194 597,276.5C 599.685,276.827 602.518,276.827 605.5,276.5 Z"/></g>
<g><path style="opacity:0.49" fill="#999999" d="M 942.5,276.5 C 947.471,276.656 952.138,277.656 956.5,279.5C 951.578,279.13 946.911,278.13 942.5,276.5 Z"/></g>
<g><path style="opacity:1" fill="#fdfdfd" d="M 1186.5,277.5 C 1201.83,276.599 1216.83,278.266 1231.5,282.5C 1234.72,282.896 1237.39,284.229 1239.5,286.5C 1242.8,288.821 1246.13,291.154 1249.5,293.5C 1252.08,294.568 1254.24,296.235 1256,298.5C 1259.71,302.544 1263.04,306.877 1266,311.5C 1268.63,308.79 1271.46,306.456 1274.5,304.5C 1279.19,300.803 1283.86,297.136 1288.5,293.5C 1293.27,289.604 1298.61,286.437 1304.5,284C 1314.72,280.192 1325.05,278.025 1335.5,277.5C 1347.85,277.449 1360.18,277.783 1372.5,278.5C 1405.73,286.901 1426.57,307.901 1435,341.5C 1436.43,348.775 1437.43,356.108 1438,363.5C 1438.5,420.166 1438.67,476.832 1438.5,533.5C 1418.33,533.83 1398.33,533.497 1378.5,532.5C 1378.67,479.832 1378.5,427.166 1378,374.5C 1377.64,369.813 1376.47,365.48 1374.5,361.5C 1369.51,346.509 1359.51,336.509 1344.5,331.5C 1341.14,329.961 1337.47,329.294 1333.5,329.5C 1329.53,329.294 1325.86,329.961 1322.5,331.5C 1300.44,339.253 1287.78,354.92 1284.5,378.5C 1283.5,429.664 1283.17,480.997 1283.5,532.5C 1263.83,532.5 1244.17,532.5 1224.5,532.5C 1224.67,478.832 1224.5,425.166 1224,371.5C 1223.77,370.263 1223.27,369.263 1222.5,368.5C 1218.95,349.61 1207.95,337.276 1189.5,331.5C 1186.28,330.046 1182.78,329.379 1179,329.5C 1175.52,329.328 1172.36,329.994 1169.5,331.5C 1149.8,338.528 1137.47,352.195 1132.5,372.5C 1131.69,374.292 1131.19,376.292 1131,378.5C 1130.5,429.832 1130.33,481.166 1130.5,532.5C 1111.17,532.5 1091.83,532.5 1072.5,532.5C 1072.5,449.167 1072.5,365.833 1072.5,282.5C 1091.83,282.5 1111.17,282.5 1130.5,282.5C 1130.33,290.84 1130.5,299.173 1131,307.5C 1132.42,306.922 1133.25,305.922 1133.5,304.5C 1137.54,300.824 1141.54,297.157 1145.5,293.5C 1157.37,283.433 1171.04,278.1 1186.5,277.5 Z"/></g>
<g><path style="opacity:0.867" fill="#9e9e9e" d="M 1186.5,277.5 C 1194.99,276.343 1203.66,276.176 1212.5,277C 1219.26,277.758 1225.59,279.591 1231.5,282.5C 1216.83,278.266 1201.83,276.599 1186.5,277.5 Z"/></g>
<g><path style="opacity:0.157" fill="#989898" d="M 1335.5,277.5 C 1340.32,276.834 1345.32,276.501 1350.5,276.5C 1358.06,276.321 1365.4,276.988 1372.5,278.5C 1360.18,277.783 1347.85,277.449 1335.5,277.5 Z"/></g>
<g><path style="opacity:0.714" fill="#a0a0a0" d="M 645.5,278.5 C 651.5,279.431 657.167,281.097 662.5,283.5C 656.411,282.899 650.744,281.232 645.5,278.5 Z"/></g>
<g><path style="opacity:0.02" fill="#888888" d="M 1071.5,281.5 C 1091.34,280.172 1111.34,280.172 1131.5,281.5C 1132.46,287.296 1132.46,293.129 1131.5,299C 1132.11,300.948 1132.78,302.782 1133.5,304.5C 1133.25,305.922 1132.42,306.922 1131,307.5C 1130.5,299.173 1130.33,290.84 1130.5,282.5C 1111.01,281.503 1091.34,281.17 1071.5,281.5 Z"/></g>
<g><path style="opacity:0.042" fill="#818181" d="M 1505.5,282.5 C 1485.24,281.512 1464.91,281.179 1444.5,281.5C 1444.5,282.5 1444.5,283.5 1444.5,284.5C 1443.05,283.48 1442.71,282.313 1443.5,281C 1453.83,280.833 1464.17,280.667 1474.5,280.5C 1485.19,280.501 1495.52,281.168 1505.5,282.5 Z"/></g>
<g><path style="opacity:0.91" fill="#a6a6a6" d="M 1710.5,292.5 C 1710.63,289.234 1711.63,286.234 1713.5,283.5C 1693.18,282.5 1672.84,282.167 1652.5,282.5C 1652.74,283.791 1652.4,284.791 1651.5,285.5C 1651.29,283.856 1651.62,282.356 1652.5,281C 1673.17,280.333 1693.83,280.333 1714.5,281C 1714.83,281.333 1715.17,281.667 1715.5,282C 1713.93,285.636 1712.26,289.136 1710.5,292.5 Z"/></g>
<g><path style="opacity:1" fill="#fdfdfd" d="M 234.5,282.5 C 254.5,282.5 274.5,282.5 294.5,282.5C 294.333,333.834 294.5,385.168 295,436.5C 295.149,440.133 295.982,443.466 297.5,446.5C 299.356,450.754 301.356,455.087 303.5,459.5C 306.113,465.113 310.113,469.446 315.5,472.5C 319.568,474.862 323.568,477.195 327.5,479.5C 332.023,482.216 337.023,483.549 342.5,483.5C 352.432,483.979 362.098,482.646 371.5,479.5C 375.658,478.328 379.325,476.328 382.5,473.5C 388.258,468.242 393.092,462.242 397,455.5C 400.098,448.439 402.265,441.106 403.5,433.5C 404.499,383.336 404.832,333.003 404.5,282.5C 424.167,282.5 443.833,282.5 463.5,282.5C 463.5,338.833 463.5,395.167 463.5,451.5C 463.001,455.49 462.501,459.49 462,463.5C 461.722,464.416 461.222,465.082 460.5,465.5C 458.39,469.502 457.057,473.835 456.5,478.5C 448.506,497.612 435.506,512.445 417.5,523C 410.995,527.202 403.995,530.035 396.5,531.5C 391.729,532.856 387.063,534.189 382.5,535.5C 382.158,536.338 381.492,536.672 380.5,536.5C 374.611,536.45 368.944,537.116 363.5,538.5C 353.53,539.811 343.53,539.811 333.5,538.5C 328.766,536.855 323.766,536.189 318.5,536.5C 302.272,534.539 287.938,528.539 275.5,518.5C 271.021,515.081 266.688,511.414 262.5,507.5C 259.944,506.457 257.777,504.79 256,502.5C 253.574,499.309 251.407,495.975 249.5,492.5C 248.278,488.388 246.278,484.721 243.5,481.5C 241.732,478.394 240.232,475.061 239,471.5C 237.341,465.389 235.841,459.223 234.5,453C 234.512,396.332 234.512,339.499 234.5,282.5 Z"/></g>
<g><path style="opacity:0.452" fill="#979797" d="M 297.5,446.5 C 295.982,443.466 295.149,440.133 295,436.5C 294.5,385.168 294.333,333.834 294.5,282.5C 274.5,282.5 254.5,282.5 234.5,282.5C 254.473,280.512 274.806,279.845 295.5,280.5C 295.333,331.834 295.5,383.168 296,434.5C 296.642,438.491 297.142,442.491 297.5,446.5 Z"/></g>
<g><path style="opacity:0.422" fill="#8d8d8d" d="M 464.5,281.5 C 444.326,281.17 424.326,281.503 404.5,282.5C 404.832,333.003 404.499,383.336 403.5,433.5C 403.5,382.5 403.5,331.5 403.5,280.5C 424.007,280.17 444.34,280.503 464.5,281.5 Z"/></g>
<g><path style="opacity:1" fill="#fbfbfb" d="M 1505.5,282.5 C 1519.1,315.472 1532.6,348.472 1546,381.5C 1548.81,388.763 1551.31,396.096 1553.5,403.5C 1554.65,407.797 1556.32,411.797 1558.5,415.5C 1561.21,421.429 1564.05,427.429 1567,433.5C 1567.49,435.134 1567.66,436.801 1567.5,438.5C 1569.27,444.485 1571.6,450.152 1574.5,455.5C 1575.94,457.637 1577.11,459.97 1578,462.5C 1583.35,448.482 1589.18,434.815 1595.5,421.5C 1598.04,417.927 1599.71,413.927 1600.5,409.5C 1600.34,408.127 1600.51,406.793 1601,405.5C 1617.47,366.695 1633.47,327.695 1649,288.5C 1649.85,287.429 1650.69,286.429 1651.5,285.5C 1652.4,284.791 1652.74,283.791 1652.5,282.5C 1672.84,282.167 1693.18,282.5 1713.5,283.5C 1711.63,286.234 1710.63,289.234 1710.5,292.5C 1672.93,382.899 1634.6,472.899 1595.5,562.5C 1592.98,566.877 1590.98,571.544 1589.5,576.5C 1581.29,600.235 1567.63,620.402 1548.5,637C 1540.88,642.144 1532.54,645.644 1523.5,647.5C 1517.61,647.45 1511.94,648.116 1506.5,649.5C 1496.17,649.5 1485.83,649.5 1475.5,649.5C 1475.5,631.833 1475.5,614.167 1475.5,596.5C 1484.84,596.666 1494.17,596.5 1503.5,596C 1506.67,595.678 1509.33,594.511 1511.5,592.5C 1516.66,591.338 1520.33,588.338 1522.5,583.5C 1531.75,568.339 1539.41,552.339 1545.5,535.5C 1542.1,527.62 1539.1,519.62 1536.5,511.5C 1535.25,506.06 1533.25,501.06 1530.5,496.5C 1518.07,468.207 1506.4,439.541 1495.5,410.5C 1494.9,405.982 1493.24,401.982 1490.5,398.5C 1479.77,373.324 1469.44,347.991 1459.5,322.5C 1458.51,316.19 1456.17,310.524 1452.5,305.5C 1451.47,299.733 1449.47,294.399 1446.5,289.5C 1444.79,288.365 1444.12,286.698 1444.5,284.5C 1444.5,283.5 1444.5,282.5 1444.5,281.5C 1464.91,281.179 1485.24,281.512 1505.5,282.5 Z"/></g>
<g><path style="opacity:0.008" fill="#8e8e8e" d="M 1239.5,286.5 C 1243.96,287.383 1247.29,289.717 1249.5,293.5C 1246.13,291.154 1242.8,288.821 1239.5,286.5 Z"/></g>
<g><path style="opacity:0.294" fill="#939393" d="M 1288.5,293.5 C 1283.86,297.136 1279.19,300.803 1274.5,304.5C 1277.94,299.401 1282.61,295.734 1288.5,293.5 Z"/></g>
<g><path style="opacity:0.616" fill="#989898" d="M 1145.5,293.5 C 1141.54,297.157 1137.54,300.824 1133.5,304.5C 1136.24,299.463 1140.24,295.796 1145.5,293.5 Z"/></g>
<g><path style="opacity:0.106" fill="#8e8e8e" d="M 1446.5,289.5 C 1449.47,294.399 1451.47,299.733 1452.5,305.5C 1449.54,300.618 1447.54,295.285 1446.5,289.5 Z"/></g>
<g><path style="opacity:0.322" fill="#9a9a9a" d="M 549.5,296.5 C 543.481,301.523 537.481,306.523 531.5,311.5C 536.276,305.059 542.276,300.059 549.5,296.5 Z"/></g>
<g><path style="opacity:0.255" fill="#929292" d="M 1452.5,305.5 C 1456.17,310.524 1458.51,316.19 1459.5,322.5C 1456.6,317.152 1454.27,311.485 1452.5,305.5 Z"/></g>
<g><path style="opacity:0.894" fill="#a2a2a2" d="M 528.5,314.5 C 526.496,318.166 523.829,321.166 520.5,323.5C 522.533,319.808 525.2,316.808 528.5,314.5 Z"/></g>
<g><path style="opacity:0.714" fill="#9c9c9c" d="M 815.5,320.5 C 813.565,324.707 810.898,328.373 807.5,331.5C 807.709,330.078 808.209,328.745 809,327.5C 810.719,324.712 812.885,322.379 815.5,320.5 Z"/></g>
<g><path style="opacity:0.767" fill="#a2a2a2" d="M 1344.5,331.5 C 1337.46,330.243 1330.13,330.243 1322.5,331.5C 1325.86,329.961 1329.53,329.294 1333.5,329.5C 1337.47,329.294 1341.14,329.961 1344.5,331.5 Z"/></g>
<g><path style="opacity:0.116" fill="#939393" d="M 1189.5,331.5 C 1182.73,331.03 1176.07,331.03 1169.5,331.5C 1172.36,329.994 1175.52,329.328 1179,329.5C 1182.78,329.379 1186.28,330.046 1189.5,331.5 Z"/></g>
<g><path style="opacity:0.933" fill="#b1b1b1" d="M 404.5,282.5 C 424.326,281.503 444.326,281.17 464.5,281.5C 465.462,336.531 465.796,391.031 465.5,445C 464.883,447.277 464.216,449.444 463.5,451.5C 463.5,395.167 463.5,338.833 463.5,282.5C 443.833,282.5 424.167,282.5 404.5,282.5 Z"/></g>
<g><path style="opacity:0.034" fill="#9d9d9d" d="M 794.5,359.5 C 793.784,364.46 792.451,369.126 790.5,373.5C 790.61,368.378 791.944,363.712 794.5,359.5 Z"/></g>
<g><path style="opacity:0.351" fill="#8e8e8e" d="M 980.5,369.5 C 982.118,372.171 982.785,375.171 982.5,378.5C 937.833,378.5 893.167,378.5 848.5,378.5C 848.232,376.901 848.566,375.568 849.5,374.5C 849.5,375.5 849.5,376.5 849.5,377.5C 893.168,377.667 936.835,377.5 980.5,377C 980.892,374.646 980.892,372.146 980.5,369.5 Z"/></g>
<g><path style="opacity:0.349" fill="#969696" d="M 696.5,375.5 C 697.79,376.058 698.623,377.058 699,378.5C 700.359,382.405 701.192,386.405 701.5,390.5C 699.599,385.671 697.933,380.671 696.5,375.5 Z"/></g>
<g><path style="opacity:0.339" fill="#8e8e8e" d="M 1222.5,368.5 C 1223.27,369.263 1223.77,370.263 1224,371.5C 1224.5,425.166 1224.67,478.832 1224.5,532.5C 1223.81,477.986 1223.14,423.32 1222.5,368.5 Z"/></g>
<g><path style="opacity:0.302" fill="#8e8e8e" d="M 1039.5,369.5 C 1041.95,374.438 1042.95,379.772 1042.5,385.5C 1041.27,380.338 1040.27,375.004 1039.5,369.5 Z"/></g>
<g><path style="opacity:0.745" fill="#9a9a9a" d="M 789.5,377.5 C 789.663,384.062 788.996,390.395 787.5,396.5C 787.156,389.918 787.823,383.584 789.5,377.5 Z"/></g>
<g><path style="opacity:0.592" fill="#9a9a9a" d="M 1374.5,361.5 C 1376.47,365.48 1377.64,369.813 1378,374.5C 1378.5,427.166 1378.67,479.832 1378.5,532.5C 1377.67,481.668 1377.17,430.668 1377,379.5C 1376.38,373.166 1375.55,367.166 1374.5,361.5 Z"/></g>
<g><path style="opacity:0.76" fill="#949494" d="M 1132.5,372.5 C 1132.29,426.042 1132.13,479.376 1132,532.5C 1111.74,533.831 1091.57,533.831 1071.5,532.5C 1071.83,532.5 1072.17,532.5 1072.5,532.5C 1091.83,532.5 1111.17,532.5 1130.5,532.5C 1130.33,481.166 1130.5,429.832 1131,378.5C 1131.19,376.292 1131.69,374.292 1132.5,372.5 Z"/></g>
<g><path style="opacity:0.408" fill="#969696" d="M 1490.5,398.5 C 1493.24,401.982 1494.9,405.982 1495.5,410.5C 1493.08,406.924 1491.41,402.924 1490.5,398.5 Z"/></g>
<g><path style="opacity:0.592" fill="#9f9f9f" d="M 701.5,390.5 C 703,396.26 703.667,402.26 703.5,408.5C 703.333,412.5 703.167,416.5 703,420.5C 702.768,421.737 702.268,422.737 701.5,423.5C 702.669,412.994 702.669,401.994 701.5,390.5 Z"/></g>
<g><path style="opacity:0.031" fill="#929292" d="M 1553.5,403.5 C 1556.31,406.913 1557.98,410.913 1558.5,415.5C 1556.32,411.797 1554.65,407.797 1553.5,403.5 Z"/></g>
<g><path style="opacity:0.22" fill="#9e9e9e" d="M 1600.5,409.5 C 1599.71,413.927 1598.04,417.927 1595.5,421.5C 1596.1,416.983 1597.76,412.983 1600.5,409.5 Z"/></g>
<g><path style="opacity:0.773" fill="#959595" d="M 494.5,385.5 C 492.767,404.981 493.767,424.314 497.5,443.5C 496.778,443.082 496.278,442.416 496,441.5C 492.293,422.974 491.793,404.307 494.5,385.5 Z"/></g>
<g><path style="opacity:0.78" fill="#9b9b9b" d="M 1042.5,413.5 C 1042.82,417.555 1042.49,421.555 1041.5,425.5C 1040.83,425.833 1040.17,426.167 1039.5,426.5C 975.818,426.809 912.651,426.476 850,425.5C 848.936,426.944 848.436,428.611 848.5,430.5C 848.753,432.858 849.086,435.192 849.5,437.5C 848.883,437.389 848.383,437.056 848,436.5C 847.501,432.514 847.334,428.514 847.5,424.5C 912.167,424.5 976.833,424.5 1041.5,424.5C 1041.19,420.629 1041.52,416.962 1042.5,413.5 Z"/></g>
<g><path style="opacity:0.092" fill="#979797" d="M 787.5,418.5 C 789.039,424.937 789.706,431.604 789.5,438.5C 787.874,432.072 787.207,425.405 787.5,418.5 Z"/></g>
<g><path style="opacity:0.09" fill="#848484" d="M 758.5,185.5 C 759.5,301.332 759.833,417.332 759.5,533.5C 739.164,533.667 718.831,533.5 698.5,533C 697.274,526.343 697.274,519.677 698.5,513C 694.453,514.833 690.453,517 686.5,519.5C 690.164,515.843 694.164,512.509 698.5,509.5C 699.497,517.138 699.831,524.804 699.5,532.5C 719.167,532.5 738.833,532.5 758.5,532.5C 758.5,416.833 758.5,301.167 758.5,185.5 Z"/></g>
<g><path style="opacity:0.951" fill="#b3b3b3" d="M 1071.5,281.5 C 1091.34,281.17 1111.01,281.503 1130.5,282.5C 1111.17,282.5 1091.83,282.5 1072.5,282.5C 1072.5,365.833 1072.5,449.167 1072.5,532.5C 1072.17,532.5 1071.83,532.5 1071.5,532.5C 1071.23,448.304 1071.23,364.637 1071.5,281.5 Z"/></g>
<g><path style="opacity:0.024" fill="#919191" d="M 1567.5,438.5 C 1568.79,439.058 1569.62,440.058 1570,441.5C 1571.81,446.111 1573.31,450.777 1574.5,455.5C 1571.6,450.152 1569.27,444.485 1567.5,438.5 Z"/></g>
<g><path style="opacity:0.329" fill="#8e8e8e" d="M 565.5,451.5 C 571.549,457.88 577.549,464.213 583.5,470.5C 576.128,465.461 570.128,459.128 565.5,451.5 Z"/></g>
<g><path style="opacity:0.518" fill="#9f9f9f" d="M 992.5,467.5 C 989.937,466.8 987.437,465.8 985,464.5C 982.611,466.399 980.111,468.066 977.5,469.5C 981.693,462.326 986.693,461.659 992.5,467.5 Z"/></g>
<g><path style="opacity:0.431" fill="#919191" d="M 303.5,459.5 C 307.472,463.807 311.472,468.141 315.5,472.5C 310.113,469.446 306.113,465.113 303.5,459.5 Z"/></g>
<g><path style="opacity:0.016" fill="#959595" d="M 460.5,465.5 C 459.943,470.165 458.61,474.498 456.5,478.5C 457.057,473.835 458.39,469.502 460.5,465.5 Z"/></g>
<g><path style="opacity:0.136" fill="#838383" d="M 1284.5,378.5 C 1284.5,430.167 1284.5,481.833 1284.5,533.5C 1264.33,533.83 1244.33,533.497 1224.5,532.5C 1244.17,532.5 1263.83,532.5 1283.5,532.5C 1283.17,480.997 1283.5,429.664 1284.5,378.5 Z"/></g>
<g><path style="opacity:0.016" fill="#939393" d="M 504.5,464.5 C 506.992,468.151 508.992,472.151 510.5,476.5C 507.46,473.086 505.46,469.086 504.5,464.5 Z"/></g>
<g><path style="opacity:0.42" fill="#949494" d="M 382.5,473.5 C 379.325,476.328 375.658,478.328 371.5,479.5C 374.646,476.756 378.313,474.756 382.5,473.5 Z"/></g>
<g><path style="opacity:0.247" fill="#959595" d="M 599.5,478.5 C 608.105,480.888 616.438,482.555 624.5,483.5C 618.779,483.631 613.112,483.131 607.5,482C 604.401,481.613 601.734,480.446 599.5,478.5 Z"/></g>
<g><path style="opacity:0.439" fill="#919191" d="M 327.5,479.5 C 332.646,480.701 337.646,482.035 342.5,483.5C 337.023,483.549 332.023,482.216 327.5,479.5 Z"/></g>
<g><path style="opacity:0.514" fill="#939393" d="M 651.5,479.5 C 644.283,482.607 636.616,483.94 628.5,483.5C 636.082,482.454 643.748,481.12 651.5,479.5 Z"/></g>
<g><path style="opacity:0.008" fill="#949494" d="M 511.5,477.5 C 514,480.494 516,483.827 517.5,487.5C 514.479,484.794 512.479,481.461 511.5,477.5 Z"/></g>
<g><path style="opacity:0.588" fill="#999999" d="M 807.5,483.5 C 810.933,486.601 813.6,490.268 815.5,494.5C 812.067,491.399 809.4,487.732 807.5,483.5 Z"/></g>
<g><path style="opacity:0.561" fill="#999999" d="M 243.5,481.5 C 246.278,484.721 248.278,488.388 249.5,492.5C 246.742,489.322 244.742,485.655 243.5,481.5 Z"/></g>
<g><path style="opacity:0.861" fill="#a9a9a9" d="M 907.5,486.5 C 917.167,487.833 926.833,487.833 936.5,486.5C 931.923,487.99 927.09,488.656 922,488.5C 916.91,488.656 912.077,487.99 907.5,486.5 Z"/></g>
<g><path style="opacity:0.443" fill="#979797" d="M 1530.5,496.5 C 1533.25,501.06 1535.25,506.06 1536.5,511.5C 1535.88,511.389 1535.38,511.056 1535,510.5C 1533.2,505.905 1531.7,501.238 1530.5,496.5 Z"/></g>
<g><path style="opacity:0.157" fill="#909090" d="M 262.5,507.5 C 266.688,511.414 271.021,515.081 275.5,518.5C 269.747,516.464 265.413,512.798 262.5,507.5 Z"/></g>
<g><path style="opacity:0.039" fill="#8f8f8f" d="M 851.5,523.5 C 855.787,524.648 859.787,526.315 863.5,528.5C 858.999,527.913 854.999,526.246 851.5,523.5 Z"/></g>
<g><path style="opacity:0.192" fill="#8e8e8e" d="M 396.5,531.5 C 395.653,532.966 394.32,533.8 392.5,534C 389.243,535.043 385.91,535.543 382.5,535.5C 387.063,534.189 391.729,532.856 396.5,531.5 Z"/></g>
<g><path style="opacity:0.373" fill="#979797" d="M 661.5,531.5 C 656.613,534.233 651.279,535.566 645.5,535.5C 650.653,533.878 655.986,532.545 661.5,531.5 Z"/></g>
<g><path style="opacity:0.218" fill="#a1a1a1" d="M 318.5,536.5 C 323.766,536.189 328.766,536.855 333.5,538.5C 329.788,538.342 326.288,538.342 323,538.5C 321.378,537.901 319.878,537.234 318.5,536.5 Z"/></g>
<g><path style="opacity:0.016" fill="#929292" d="M 380.5,536.5 C 375.084,538.117 369.417,538.784 363.5,538.5C 368.944,537.116 374.611,536.45 380.5,536.5 Z"/></g>
<g><path style="opacity:0.549" fill="#939393" d="M 591.5,535.5 C 608.45,537.806 625.45,538.139 642.5,536.5C 640.369,537.314 638.036,537.814 635.5,538C 624.129,538.453 612.962,538.619 602,538.5C 598.338,537.76 594.838,536.76 591.5,535.5 Z"/></g>
<g><path style="opacity:0.125" fill="#929292" d="M 948.5,536.5 C 942.416,538.177 936.082,538.844 929.5,538.5C 935.605,537.004 941.938,536.337 948.5,536.5 Z"/></g>
<g><path style="opacity:0.122" fill="#929292" d="M 1595.5,562.5 C 1594.55,567.72 1592.55,572.386 1589.5,576.5C 1590.98,571.544 1592.98,566.877 1595.5,562.5 Z"/></g>
<g><path style="opacity:0.714" fill="#9c9c9c" d="M 1522.5,583.5 C 1520.33,588.338 1516.66,591.338 1511.5,592.5C 1515.43,589.908 1519.1,586.908 1522.5,583.5 Z"/></g>
<g><path style="opacity:0.857" fill="#b0b0b0" d="M 1511.5,592.5 C 1509.33,594.511 1506.67,595.678 1503.5,596C 1494.17,596.5 1484.84,596.666 1475.5,596.5C 1475.5,614.167 1475.5,631.833 1475.5,649.5C 1474.5,631.674 1474.17,613.674 1474.5,595.5C 1483.17,595.666 1491.84,595.5 1500.5,595C 1504.29,594.593 1507.95,593.759 1511.5,592.5 Z"/></g>
<g><path style="opacity:0.147" fill="#9a9a9a" d="M 1523.5,647.5 C 1522.36,648.339 1521.03,649.006 1519.5,649.5C 1515.35,649.346 1511.01,649.346 1506.5,649.5C 1511.94,648.116 1517.61,647.45 1523.5,647.5 Z"/></g>
</svg>